<svg width="28" height="23" viewBox="0 0 28 23" fill="none" xmlns="http://www.w3.org/2000/svg">
<path d="M27.5812 3.11832C26.5793 3.5525 25.5439 3.85309 24.4417 3.98668C25.5773 3.31871 26.4457 2.24996 26.8464 0.947414C25.7777 1.58199 24.6087 2.01617 23.373 2.28336C22.371 1.2146 20.9349 0.546631 19.3652 0.546631C16.3259 0.546631 13.8878 3.01813 13.8878 6.024C13.8878 6.45818 13.9212 6.85896 14.0214 7.25974C9.47918 7.05935 5.47135 4.85505 2.76607 1.54859C0.828952 5.02204 2.99986 7.89432 4.436 8.86288C3.56764 8.86288 2.69927 8.59569 1.9645 8.19491C1.9645 10.9002 3.86822 13.1379 6.33972 13.6389C5.80534 13.8059 4.60299 13.9061 3.86822 13.7391C4.56959 15.91 6.60691 17.5131 8.97821 17.5465C7.10788 19.016 4.3692 20.185 0.86235 19.8176C3.30045 21.3873 6.17272 22.2891 9.27879 22.2891C19.3652 22.2891 24.8425 13.9395 24.8425 6.72537C24.8425 6.49158 24.8425 6.25779 24.8091 6.024C25.9447 5.18903 26.8798 4.22047 27.5812 3.11832V3.11832Z" fill="#1B1B1B"/>
</svg>
