<svg width="37" height="39" viewBox="0 0 37 39" fill="none" xmlns="http://www.w3.org/2000/svg">
<g clip-path="url(#clip0_1_11)">
<path d="M18.9609 24.2428C18.9609 21.2772 17.6535 19.0852 14.9525 18.2635C16.9232 17.2509 17.951 15.7168 17.951 13.3305C17.951 8.62542 14.6908 7.47803 10.9293 7.47803H0.573059V31.1015H11.2193C15.2113 31.1015 18.9609 29.0426 18.9609 24.2428ZM5.40092 11.5108H9.93132C11.673 11.5108 13.2406 12.0371 13.2406 14.2099C13.2406 16.2159 12.021 17.0231 10.2957 17.0231H5.40092V11.5108ZM5.39943 27.0896V20.584H10.6616C12.787 20.584 14.1315 21.5372 14.1315 23.9572C14.1315 26.3434 12.5267 27.0896 10.5619 27.0896H5.39943Z" fill="#1B1B1B"/>
<path d="M28.5288 31.5493C32.3275 31.5493 34.7875 29.7086 35.9714 25.7963H32.1163C31.7013 27.2566 29.9909 28.0285 28.6642 28.0285C26.1045 28.0285 24.76 26.4157 24.76 23.6748H36.2317C36.5946 18.1898 33.7628 13.5151 28.5274 13.5151C23.6802 13.5151 20.3902 17.4339 20.3902 22.5675C20.3902 27.8953 23.5076 31.5493 28.5288 31.5493V31.5493ZM28.392 17.0648C30.5858 17.0648 31.6894 18.4513 31.8738 20.7188H24.7659C24.9102 18.4706 26.2979 17.0648 28.392 17.0648Z" fill="#1B1B1B"/>
<path d="M23.875 8.71875H32.7811V11.0456H23.875V8.71875Z" fill="#1B1B1B"/>
</g>
<defs>
<clipPath id="clip0_1_11">
<rect width="35.6958" height="38.5139" fill="white" transform="translate(0.57312 0.256836)"/>
</clipPath>
</defs>
</svg>
