<svg width="37" height="39" viewBox="0 0 37 39" fill="none" xmlns="http://www.w3.org/2000/svg">
<g clip-path="url(#clip0_1_17)">
<path d="M18.652 0.162598C8.8111 0.162598 0.804077 8.80175 0.804077 19.4196C0.804077 30.0374 8.8111 38.6765 18.652 38.6765C28.4929 38.6765 36.4999 30.0374 36.4999 19.4196C36.4999 8.80175 28.4929 0.162598 18.652 0.162598ZM18.652 36.2694C10.0404 36.2694 3.03507 28.7086 3.03507 19.4196C3.03507 10.1281 10.0404 2.56972 18.652 2.56972C27.2614 2.56972 34.2689 10.1281 34.2689 19.4196C34.2689 28.7086 27.2614 36.2694 18.652 36.2694Z" fill="#1B1B1B"/>
<path d="M18.6519 4.97705C17.7149 4.97705 16.8002 5.08296 15.9167 5.28035C17.5408 7.7645 19.0155 10.3497 20.314 13.0289C22.7703 11.794 25.0816 10.2005 27.1921 8.29888C24.8741 6.22394 21.898 4.97705 18.6519 4.97705Z" fill="#1B1B1B"/>
<path d="M28.7829 9.99805C26.4872 12.085 23.9617 13.8157 21.2801 15.1685C21.8668 16.4876 22.4112 17.8236 22.9154 19.1812C25.8782 18.5241 28.9614 18.4639 32.0178 19.0103C31.9286 15.5681 30.7283 12.4292 28.7829 9.99805Z" fill="#1B1B1B"/>
<path d="M13.6768 6.01904C9.65882 7.75698 6.61129 11.5313 5.62073 16.1651C9.95331 16.3648 14.2413 15.5849 18.2325 13.9409C16.8917 11.1944 15.3724 8.54652 13.6768 6.01904Z" fill="#1B1B1B"/>
<path d="M19.2319 16.1196C15.3679 17.7444 11.2405 18.6303 7.04403 18.6303C6.4662 18.6303 5.88615 18.5917 5.30609 18.558C5.29047 18.8445 5.26593 19.1285 5.26593 19.4198C5.26593 22.9655 6.45505 26.2103 8.42055 28.7233C11.6354 24.417 15.9568 21.331 20.7401 19.7809C20.2738 18.5436 19.7696 17.3256 19.2319 16.1196Z" fill="#1B1B1B"/>
<path d="M23.7341 21.4609C24.7983 24.6624 25.6326 27.9529 26.2439 31.3084C29.2602 29.0626 31.3663 25.5169 31.895 21.42C29.1598 20.8976 26.3956 20.9217 23.7341 21.4609Z" fill="#1B1B1B"/>
<path d="M21.5433 22.0195C17.0456 23.4373 12.983 26.3499 10.0046 30.4348C12.3383 32.5699 15.3523 33.8626 18.652 33.8626C20.6331 33.8626 22.5093 33.386 24.2004 32.5507C23.5869 28.9544 22.6945 25.4352 21.5433 22.0195Z" fill="#1B1B1B"/>
</g>
<defs>
<clipPath id="clip0_1_17">
<rect width="35.6958" height="38.5139" fill="white" transform="translate(0.804077 0.162598)"/>
</clipPath>
</defs>
</svg>
