<svg width="664" height="103" viewBox="0 0 664 103" fill="none" xmlns="http://www.w3.org/2000/svg">
<g clip-path="url(#clip0_1_509)">
<path d="M50.2399 66.2217L50.363 67.124C50.4724 67.7256 50.6501 68.4502 50.8962 69.2979C51.1423 70.1182 51.4841 70.8975 51.9216 71.6357C52.3591 72.374 52.9333 72.9072 53.6442 73.2354H34.1618L34.613 72.7842C34.9411 72.4834 35.3102 71.9912 35.7204 71.3076C36.1306 70.5967 36.486 69.6807 36.7868 68.5596C37.1149 67.4111 37.279 66.0029 37.279 64.335V44.7705H17.0583V66.2217L17.1813 67.124C17.2907 67.7256 17.4684 68.4502 17.7145 69.2979C17.9606 70.1182 18.3024 70.8975 18.7399 71.6357C19.2048 72.374 19.779 72.9072 20.4626 73.2354H0.980164L1.43134 72.7842C1.75946 72.4834 2.1286 71.9912 2.53876 71.3076C2.94891 70.5967 3.30438 69.6807 3.60516 68.5596C3.93329 67.4111 4.09735 66.0029 4.09735 64.335V14.9521C4.09735 13.2842 3.93329 11.8896 3.60516 10.7686C3.30438 9.62012 2.94891 8.7041 2.53876 8.02051C2.1286 7.30957 1.75946 6.80371 1.43134 6.50293L0.980164 6.05176H20.4626C19.779 6.35254 19.2048 6.87207 18.7399 7.61035C18.3024 8.34863 17.9606 9.1416 17.7145 9.98926C17.4684 10.8096 17.2907 11.5205 17.1813 12.1221L17.0583 13.0654V42.3506H37.279V14.9521C37.279 13.2842 37.1149 11.8896 36.7868 10.7686C36.486 9.62012 36.1306 8.7041 35.7204 8.02051C35.3102 7.30957 34.9411 6.80371 34.613 6.50293L34.1618 6.05176H53.6442C52.9333 6.35254 52.3591 6.87207 51.9216 7.61035C51.4841 8.34863 51.1423 9.1416 50.8962 9.98926C50.6501 10.8096 50.4724 11.5205 50.363 12.1221L50.2399 13.0654V66.2217ZM107.129 73.2354H87.6462L88.3845 72.4971C88.8766 71.9775 89.3688 71.1299 89.861 69.9541C88.5485 70.2822 87.2634 70.665 86.0056 71.1025C81.6032 72.7158 77.6657 73.4268 74.1931 73.2354C70.7477 73.0439 67.8356 72.333 65.4567 71.1025C62.9684 69.8174 61.0544 67.9443 59.7145 65.4834C58.6208 63.46 58.0739 61.3408 58.0739 59.126C58.0739 55.9268 59.2087 53.1104 61.4782 50.6768C63.2829 48.7354 65.4157 47.2588 67.8766 46.2471C70.0095 45.3721 72.2516 44.5928 74.6032 43.9092C77.529 43.0615 80.3454 42.0498 83.0524 40.874C85.7595 39.6709 88.0563 37.9209 89.9431 35.624C91.8298 33.3271 92.7731 30.7979 92.7731 28.0361C92.7731 26.4502 92.4997 25.1924 91.9528 24.2627C90.4489 21.6377 88.0837 20.3252 84.8571 20.3252C82.3688 20.3252 80.2224 21.2549 78.4177 23.1143C77.0231 24.5361 76.3259 26.2178 76.3259 28.1592C76.3259 30.1279 77.2556 32.0693 79.1149 33.9834C80.0993 35.1865 79.9763 36.1982 78.7458 37.0186C77.2692 37.8936 75.738 38.3311 74.152 38.3311C71.6091 38.3311 69.4899 37.3877 67.7946 35.501C66.4548 33.9971 65.7849 32.2744 65.7849 30.333C65.7849 28.3369 66.4274 26.5186 67.7126 24.8779C69.0251 23.2373 70.6657 21.8975 72.6345 20.8584C75.7516 19.2451 79.197 18.4385 82.9704 18.4385C88.5485 18.4385 93.3884 20.0244 97.4899 23.1963C98.2282 23.7432 98.9118 24.3447 99.5407 25.001L99.8278 25.3291C102.425 28.583 103.724 32.1787 103.724 36.1162V64.8271C103.724 66.3584 103.957 67.8623 104.422 69.3389C105.05 71.3896 105.953 72.6885 107.129 73.2354ZM88.5075 63.9658C89.3278 63.4189 90.0934 62.8447 90.8044 62.2432C94.0309 59.5088 96.2458 56.6514 97.4489 53.6709C98.0231 52.249 98.3102 50.9365 98.3102 49.7334C98.3102 48.3936 97.9411 47.1904 97.2028 46.124C95.8903 44.1826 93.7575 43.2119 90.8044 43.2119C86.5661 43.2119 82.1501 44.7568 77.5563 47.8467C73.4821 50.6084 70.6247 53.6709 68.9841 57.0342C68.1091 58.8115 67.6716 60.4521 67.6716 61.9561C67.6716 63.2959 68.0407 64.499 68.779 65.5654C70.1735 67.5615 72.6618 68.5732 76.2438 68.6006H76.3259C79.8532 68.6006 83.9138 67.0557 88.5075 63.9658ZM156.347 30.292C156.101 34.3662 154.912 38.1396 152.779 41.6123L144.412 56.501L135.922 73.1943L135.429 71.1025C135.074 69.708 134.527 68.0127 133.789 66.0166C133.078 63.9932 132.175 61.9697 131.082 59.9463L116.357 35.2139C114.799 32.6162 112.543 31.249 109.59 31.1123H109.261L110.861 30.292C111.9 29.7451 113.144 28.9385 114.593 27.8721C116.043 26.7783 117.437 25.4385 118.777 23.8525C120.144 22.2666 121.17 20.4482 121.853 18.3975L124.232 22.8271C125.791 25.7803 127.705 29.335 129.974 33.4912C132.271 37.6475 134.568 41.6807 136.865 45.5908C139.162 49.4736 141.103 52.4678 142.689 54.5732L150.728 40.2588C151.166 39.1377 151.384 38.0029 151.384 36.8545C151.384 36.0068 151.275 35.1592 151.056 34.3115C150.4 32.1787 149.115 30.6201 147.201 29.6357C146.326 29.2529 145.424 29.0615 144.494 29.0615C144.357 29.0615 143.988 29.0752 143.386 29.1025C142.812 29.1025 142.088 29.2256 141.213 29.4717C141.049 29.499 140.884 29.5127 140.72 29.5127C140.283 29.5127 139.845 29.3486 139.408 29.0205C138.998 28.6924 138.779 28.1865 138.752 27.5029C138.752 24.9326 139.599 22.7314 141.295 20.8994C142.498 19.6963 143.92 18.917 145.56 18.5615C146.107 18.4521 146.654 18.3975 147.201 18.3975C148.267 18.3975 149.306 18.6162 150.318 19.0537C152.424 20.0654 153.968 21.624 154.953 23.7295C155.883 25.7256 156.347 27.79 156.347 29.9229V30.292ZM205.566 53.0146C205.758 53.2334 205.935 53.4932 206.099 53.7939C206.127 53.8486 206.168 53.9033 206.222 53.958C205.375 59.0986 203.091 63.3779 199.373 66.7959C195.654 70.2139 191.334 72.2783 186.412 72.9893C185.482 73.126 184.566 73.1943 183.664 73.1943C179.754 73.1943 176.021 71.9365 172.466 69.4209C169.459 67.3154 167.066 64.6494 165.289 61.4229C163.539 58.1963 162.404 54.792 161.884 51.21C161.693 49.8154 161.584 48.4072 161.556 46.9854V46.4932C161.556 42.9385 162.117 39.4111 163.238 35.9111C164.359 32.4111 166.15 29.2529 168.611 26.4365C171.427 23.1826 174.832 20.9404 178.824 19.71C181.613 18.8623 184.443 18.4385 187.314 18.4385C188.599 18.4385 189.884 18.5205 191.17 18.6846C193.084 18.9033 194.97 19.3682 196.83 20.0791C198.689 20.79 200.357 21.7881 201.834 23.0732C203.392 24.4678 204.459 26.1494 205.033 28.1182C205.334 29.2119 205.484 30.333 205.484 31.4814C205.484 32.3291 205.388 33.1904 205.197 34.0654C204.65 36.4443 203.611 38.5635 202.08 40.4229C200.549 42.2549 198.73 43.7725 196.625 44.9756C192.769 47.2725 188.695 48.5713 184.402 48.8721C180.136 49.1729 176.336 48.3252 173 46.3291C173.355 49.1729 174.203 51.8662 175.543 54.4092C176.883 56.9521 178.715 59.085 181.039 60.8076C183.363 62.5303 185.961 63.5693 188.832 63.9248C189.515 64.0068 190.172 64.0479 190.8 64.0479C192.961 64.0479 195.025 63.542 196.994 62.5303C198.963 61.5459 200.658 60.2061 202.08 58.5107C202.791 57.6631 203.433 56.7607 204.008 55.8037C204.226 55.4482 204.746 54.5186 205.566 53.0146ZM180.177 25.7803C176.623 28.5693 174.244 31.5635 173.041 34.7627C172.494 36.2119 172.22 37.5244 172.22 38.7002C172.22 40.2041 172.672 41.4893 173.574 42.5557C174.832 44.0596 177.238 44.7021 180.793 44.4834C184.347 44.2373 187.902 42.5693 191.457 39.4795C194.875 36.5537 197.199 33.4912 198.429 30.292C198.976 28.8701 199.25 27.5576 199.25 26.3545C199.25 24.8779 198.785 23.5928 197.855 22.499C196.625 21.0225 194.888 20.3389 192.646 20.4482C188.681 20.6123 184.525 22.3896 180.177 25.7803ZM279.64 73.2354H260.158L260.896 72.4971C261.388 71.9775 261.881 71.1299 262.373 69.9541C261.06 70.2822 259.775 70.665 258.517 71.1025C254.115 72.7158 250.177 73.4268 246.705 73.2354C243.259 73.0439 240.347 72.333 237.968 71.1025C235.48 69.8174 233.566 67.9443 232.226 65.4834C231.133 63.46 230.586 61.3408 230.586 59.126C230.586 55.9268 231.72 53.1104 233.99 50.6768C235.795 48.7354 237.927 47.2588 240.388 46.2471C242.521 45.3721 244.763 44.5928 247.115 43.9092C250.041 43.0615 252.857 42.0498 255.564 40.874C258.271 39.6709 260.568 37.9209 262.455 35.624C264.341 33.3271 265.285 30.7979 265.285 28.0361C265.285 26.4502 265.011 25.1924 264.465 24.2627C262.961 21.6377 260.595 20.3252 257.369 20.3252C254.881 20.3252 252.734 21.2549 250.929 23.1143C249.535 24.5361 248.838 26.2178 248.838 28.1592C248.838 30.1279 249.767 32.0693 251.627 33.9834C252.611 35.1865 252.488 36.1982 251.258 37.0186C249.781 37.8936 248.25 38.3311 246.664 38.3311C244.121 38.3311 242.002 37.3877 240.306 35.501C238.966 33.9971 238.297 32.2744 238.297 30.333C238.297 28.3369 238.939 26.5186 240.224 24.8779C241.537 23.2373 243.177 21.8975 245.146 20.8584C248.263 19.2451 251.709 18.4385 255.482 18.4385C261.06 18.4385 265.9 20.0244 270.002 23.1963C270.74 23.7432 271.424 24.3447 272.052 25.001L272.34 25.3291C274.937 28.583 276.236 32.1787 276.236 36.1162V64.8271C276.236 66.3584 276.468 67.8623 276.933 69.3389C277.562 71.3896 278.465 72.6885 279.64 73.2354ZM261.019 63.9658C261.84 63.4189 262.605 62.8447 263.316 62.2432C266.543 59.5088 268.758 56.6514 269.961 53.6709C270.535 52.249 270.822 50.9365 270.822 49.7334C270.822 48.3936 270.453 47.1904 269.715 46.124C268.402 44.1826 266.269 43.2119 263.316 43.2119C259.078 43.2119 254.662 44.7568 250.068 47.8467C245.994 50.6084 243.136 53.6709 241.496 57.0342C240.621 58.8115 240.183 60.4521 240.183 61.9561C240.183 63.2959 240.552 64.499 241.291 65.5654C242.685 67.5615 245.174 68.5732 248.756 68.6006H248.838C252.365 68.6006 256.425 67.0557 261.019 63.9658Z" fill="#17151D"/>
<path d="M355.724 48.3389C355.834 50.6904 355.656 53.0283 355.191 55.3525C354.015 61.1768 351.623 65.7021 348.013 68.9287C344.404 72.1279 340.302 73.5635 335.709 73.2354C331.142 72.9346 326.781 70.4053 322.625 65.6475V87.1396C321.039 85.7451 319.302 84.7197 317.416 84.0635C315.529 83.4072 313.711 82.9834 311.961 82.792C310.211 82.6006 308.761 82.5322 307.613 82.5869L305.89 82.6279C306.765 82.1084 307.504 81.2744 308.105 80.126C309.336 77.8564 309.951 75.4775 309.951 72.9893V26.7236C309.951 25.5205 309.746 24.4268 309.336 23.4424C308.925 22.4307 308.474 21.6104 307.982 20.9814C307.517 20.3525 307.148 19.9834 306.875 19.874H324.429C324.211 20.0381 323.91 20.3799 323.527 20.8994C323.172 21.3916 322.816 22.0889 322.461 22.9912C323.937 21.8154 325.769 21.0088 327.957 20.5713C330.144 20.1338 331.853 19.915 333.084 19.915C336.611 19.915 339.742 20.7764 342.476 22.499C345.238 24.1943 347.576 26.4365 349.49 29.2256C351.431 32.0146 352.922 35.0771 353.961 38.4131C355 41.7217 355.588 45.0303 355.724 48.3389ZM350.023 59.4541C351.992 56.5557 351.937 52.9873 349.859 48.749C347.781 44.5107 344.172 40.6553 339.031 37.1826C333.07 33.1084 327.492 31.126 322.297 31.2354C318.578 31.3174 315.884 32.5752 314.216 35.0088C312.466 37.6064 312.357 40.7783 313.888 44.5244C315.42 48.2705 318.222 51.8662 322.297 55.3115C323.199 56.0771 324.156 56.8018 325.168 57.4854C330.336 60.9033 335.271 62.8174 339.974 63.2275C344.677 63.6104 348.027 62.3525 350.023 59.4541ZM403.179 23.7295C403.89 24.9873 404.246 26.3271 404.246 27.749C404.246 27.9951 404.205 28.6104 404.123 29.5947C404.041 30.5791 403.494 31.7549 402.482 33.1221C400.869 35.0635 398.818 36.1846 396.33 36.4854H396.125C395.55 36.4854 395.086 36.2939 394.73 35.9111C394.347 35.501 394.156 34.9951 394.156 34.3936V34.1885C394.238 33.6963 394.279 33.1631 394.279 32.5889C394.279 32.1514 394.238 31.5361 394.156 30.7432C394.101 29.9502 393.814 29.0889 393.295 28.1592C392.119 26.2998 390.451 25.165 388.291 24.7549C387.853 24.6729 387.402 24.6318 386.937 24.6318C386.664 24.6318 386.39 24.6455 386.117 24.6729C384.367 24.8643 382.808 25.5479 381.441 26.7236L379.349 28.4873V65.9756L379.513 66.9189C379.595 67.5479 379.759 68.2861 380.006 69.1338C380.252 69.9814 380.593 70.7881 381.031 71.5537C381.496 72.3193 382.07 72.8662 382.754 73.1943H363.271L363.763 72.7021C364.064 72.4014 364.42 71.8955 364.83 71.1846C365.24 70.4736 365.595 69.5439 365.896 68.3955C366.224 67.2197 366.388 65.7705 366.388 64.0479V30.21C366.388 28.7607 366.047 27.4209 365.363 26.1904C364.707 24.9326 363.763 23.9209 362.533 23.1553C362.451 23.1279 362.355 23.0869 362.246 23.0322L364.009 23.1143H364.461C365.554 23.1143 366.935 23.0322 368.603 22.8682C370.299 22.6768 372.103 22.2393 374.017 21.5557C375.959 20.8721 377.736 19.8193 379.349 18.3975V25.8213L381.195 24.3037C384.258 21.7607 387.716 20.1475 391.572 19.4639C392.42 19.3271 393.267 19.2588 394.115 19.2588C395.455 19.2588 396.986 19.5049 398.709 19.9971C400.431 20.4619 401.922 21.7061 403.179 23.7295ZM436.32 18.3975C441.515 18.3975 446.246 19.6279 450.511 22.0889C454.804 24.5498 458.222 27.8584 460.765 32.0146C463.336 36.1436 464.621 40.7236 464.621 45.7549C464.621 50.7861 463.336 55.3799 460.765 59.5361C458.222 63.665 454.804 66.96 450.511 69.4209C446.246 71.8818 441.515 73.1123 436.32 73.1123C431.097 73.1123 426.34 71.8818 422.047 69.4209C417.781 66.96 414.363 63.665 411.793 59.5361C409.25 55.3799 407.978 50.7861 407.978 45.7549C407.978 40.7236 409.25 36.1436 411.793 32.0146C414.363 27.8584 417.781 24.5498 422.047 22.0889C426.34 19.6279 431.097 18.3975 436.32 18.3975ZM444.441 57.9775C449.965 54.0674 453.847 50.1299 456.09 46.165C457.976 42.8564 458.92 39.8213 458.92 37.0596C458.92 32.5205 457.361 29.458 454.244 27.8721C452.275 26.8604 448.857 26.5869 443.99 27.0518C439.123 27.4893 433.859 29.6768 428.199 33.6143C422.648 37.4697 418.752 41.3936 416.509 45.3857C414.65 48.667 413.72 51.6885 413.72 54.4502C413.72 57.6494 414.978 60.2334 417.494 62.2021C420.037 64.1709 423.646 65.0322 428.322 64.7861C433.025 64.5127 438.398 62.2432 444.441 57.9775ZM486.851 7.85645C486.851 9.87988 486.127 11.6162 484.677 13.0654C483.256 14.4873 481.533 15.1982 479.509 15.1982C477.486 15.1982 475.75 14.4873 474.3 13.0654C472.879 11.6162 472.168 9.87988 472.168 7.85645C472.168 5.83301 472.879 4.11035 474.3 2.68848C475.75 1.23926 477.486 0.514648 479.509 0.514648C481.533 0.514648 483.256 1.23926 484.677 2.68848C486.127 4.11035 486.851 5.83301 486.851 7.85645ZM486.359 18.3975V81.6846H486.318C486.318 82.04 486.332 82.3955 486.359 82.751V84.2686C486.359 85.9092 486.304 87.6455 486.195 89.4775C486.113 91.3369 485.758 93.251 485.129 95.2197C484.336 97.79 482.818 99.7861 480.576 101.208C478.388 102.384 476.05 102.972 473.562 102.972C473.125 102.972 472.031 102.89 470.281 102.726C468.531 102.589 466.398 101.851 463.883 100.511C463.172 100.101 462.474 99.6494 461.791 99.1572C460.724 98.3643 459.808 97.4209 459.043 96.3271C458.25 95.2334 457.744 94.0303 457.525 92.7178C457.498 92.4443 457.484 92.1709 457.484 91.8975C457.484 89.2451 458.605 87.1123 460.847 85.499C462.297 84.624 463.773 84.1865 465.277 84.1865C466.453 84.1865 467.642 84.4463 468.845 84.9658C469.283 85.1572 469.666 85.417 469.994 85.7451C470.349 86.1006 470.527 86.5107 470.527 86.9756C470.527 87.3311 470.418 87.6592 470.199 87.96C470.008 88.2607 469.775 88.5479 469.502 88.8213C469.42 88.9033 469.338 88.999 469.256 89.1084C468.216 90.3115 467.588 91.7197 467.369 93.333C467.341 93.6611 467.328 93.9893 467.328 94.3174C467.328 95.5479 467.615 96.7373 468.189 97.8857C468.982 99.3896 470.144 100.497 471.675 101.208C472.851 101.728 474.123 101.987 475.49 101.987C475.763 101.987 476.379 101.946 477.336 101.864C478.293 101.782 479.4 101.29 480.658 100.388C481.916 99.4854 482.613 98.1592 482.75 96.4092V96.1221C482.75 94.5361 482.312 93.1826 481.437 92.0615C480.562 90.9678 479.496 90.0928 478.238 89.4365C477.008 88.8076 475.9 88.3564 474.916 88.083C473.959 87.8369 473.453 87.7139 473.398 87.7139V29.9229C473.398 28.5283 473.056 27.2158 472.373 25.9854C471.716 24.7549 470.773 23.7842 469.543 23.0732C469.461 23.0186 469.365 22.9639 469.256 22.9092L471.019 22.9912H471.84C472.851 22.9912 474.15 22.9092 475.736 22.7451C477.322 22.5811 479.086 22.1709 481.027 21.5146C482.968 20.8311 484.746 19.792 486.359 18.3975ZM538.941 53.0146C539.133 53.2334 539.31 53.4932 539.474 53.7939C539.502 53.8486 539.543 53.9033 539.597 53.958C538.75 59.0986 536.466 63.3779 532.748 66.7959C529.029 70.2139 524.709 72.2783 519.787 72.9893C518.857 73.126 517.941 73.1943 517.039 73.1943C513.129 73.1943 509.396 71.9365 505.841 69.4209C502.834 67.3154 500.441 64.6494 498.664 61.4229C496.914 58.1963 495.779 54.792 495.259 51.21C495.068 49.8154 494.959 48.4072 494.931 46.9854V46.4932C494.931 42.9385 495.492 39.4111 496.613 35.9111C497.734 32.4111 499.525 29.2529 501.986 26.4365C504.802 23.1826 508.207 20.9404 512.199 19.71C514.988 18.8623 517.818 18.4385 520.689 18.4385C521.974 18.4385 523.259 18.5205 524.545 18.6846C526.459 18.9033 528.345 19.3682 530.205 20.0791C532.064 20.79 533.732 21.7881 535.209 23.0732C536.767 24.4678 537.834 26.1494 538.408 28.1182C538.709 29.2119 538.859 30.333 538.859 31.4814C538.859 32.3291 538.763 33.1904 538.572 34.0654C538.025 36.4443 536.986 38.5635 535.455 40.4229C533.924 42.2549 532.105 43.7725 530 44.9756C526.144 47.2725 522.07 48.5713 517.777 48.8721C513.511 49.1729 509.711 48.3252 506.375 46.3291C506.73 49.1729 507.578 51.8662 508.918 54.4092C510.258 56.9521 512.09 59.085 514.414 60.8076C516.738 62.5303 519.336 63.5693 522.207 63.9248C522.89 64.0068 523.547 64.0479 524.175 64.0479C526.336 64.0479 528.4 63.542 530.369 62.5303C532.338 61.5459 534.033 60.2061 535.455 58.5107C536.166 57.6631 536.808 56.7607 537.383 55.8037C537.601 55.4482 538.121 54.5186 538.941 53.0146ZM513.552 25.7803C509.998 28.5693 507.619 31.5635 506.416 34.7627C505.869 36.2119 505.595 37.5244 505.595 38.7002C505.595 40.2041 506.047 41.4893 506.949 42.5557C508.207 44.0596 510.613 44.7021 514.168 44.4834C517.722 44.2373 521.277 42.5693 524.832 39.4795C528.25 36.5537 530.574 33.4912 531.804 30.292C532.351 28.8701 532.625 27.5576 532.625 26.3545C532.625 24.8779 532.16 23.5928 531.23 22.499C530 21.0225 528.263 20.3389 526.021 20.4482C522.056 20.6123 517.9 22.3896 513.552 25.7803ZM575.199 34.9268C575.199 34.6533 575.267 34.4209 575.404 34.2295C575.541 34.0381 575.732 33.833 575.978 33.6143C576.334 33.3135 576.73 32.8486 577.168 32.2197C578.015 30.9072 578.494 29.4443 578.603 27.8311V27.2979C578.603 25.876 578.234 24.5771 577.496 23.4014C576.183 21.5693 574.556 20.5576 572.615 20.3662C572.232 20.3115 571.849 20.2842 571.466 20.2842C569.881 20.2842 568.213 20.6943 566.463 21.5146C564.74 22.3076 563.222 23.3877 561.91 24.7549C559.859 27.0244 558.41 29.6494 557.562 32.6299C556.824 35.2822 556.455 37.9482 556.455 40.6279V41.6533C556.537 45.126 557.22 48.5713 558.506 51.9893C559.791 55.4072 561.8 58.2646 564.535 60.5615C567.379 62.7764 570.578 63.9385 574.133 64.0479H574.625C577.961 64.0479 581.009 62.9814 583.771 60.8486C585.494 59.4268 586.902 57.7451 587.996 55.8037C588.05 55.6943 588.16 55.4893 588.324 55.1885C588.488 54.8877 588.666 54.5732 588.857 54.2451C589.049 53.8896 589.213 53.5752 589.349 53.3018L589.554 52.9326L589.636 53.0967C589.718 53.2061 589.814 53.3428 589.924 53.5068C590.033 53.6709 590.129 53.8213 590.211 53.958C589.363 59.0986 587.08 63.3779 583.361 66.7959C579.642 70.2139 575.322 72.2783 570.4 72.9893C569.47 73.126 568.554 73.1943 567.652 73.1943C563.742 73.1943 559.982 71.9775 556.373 69.5439C553.42 67.3564 551.054 64.6494 549.277 61.4229C547.527 58.1963 546.392 54.792 545.873 51.21C545.654 49.6787 545.545 48.1475 545.545 46.6162C545.545 44.4014 545.832 41.7764 546.406 38.7412C547.008 35.7061 548.32 32.5752 550.343 29.3486C552.367 26.0947 555.06 23.4971 558.424 21.5557C562.58 19.2588 567.283 18.2334 572.533 18.4795C577.81 18.6982 582.377 20.3252 586.232 23.3604C587.545 24.4268 588.543 25.6982 589.226 27.1748C589.691 28.1865 589.924 29.2256 589.924 30.292C589.924 30.8389 589.869 31.3857 589.759 31.9326C589.349 33.6826 588.515 35.1729 587.258 36.4033C586 37.6338 584.496 38.3857 582.746 38.6592C582.445 38.6865 582.144 38.7002 581.843 38.7002C580.34 38.7002 578.877 38.3311 577.455 37.5928C576.06 36.8545 575.308 35.9658 575.199 34.9268ZM625.238 30.5791H615.23V61.3408C615.23 63.5283 615.668 65.374 616.543 66.8779C617.445 68.3818 618.47 69.585 619.619 70.4873C620.795 71.3896 621.82 72.0459 622.695 72.4561C623.597 72.8662 624.076 73.0713 624.131 73.0713C623.584 73.0986 623.023 73.126 622.449 73.1533C620.754 73.2354 618.976 73.2764 617.117 73.2764C615.258 73.2764 613.453 73.1123 611.703 72.7842C609.953 72.4561 608.367 71.8545 606.945 70.9795C605.523 70.1045 604.388 68.8467 603.541 67.2061C602.693 65.5381 602.269 63.3643 602.269 60.6846V30.5791H595.666V28.1592H602.269V20.0791C603.773 19.6963 605.441 18.9307 607.273 17.7822C609.133 16.6064 610.814 15.0479 612.318 13.1064C613.822 11.1377 614.793 8.75879 615.23 5.96973V28.1592H625.238V30.5791ZM639.84 61.1357C641.508 61.1357 642.943 61.7373 644.146 62.9404C645.349 64.1436 645.951 65.5928 645.951 67.2881C645.951 68.9561 645.349 70.3916 644.146 71.5947C642.943 72.7979 641.508 73.3994 639.84 73.3994C638.144 73.3994 636.695 72.7979 635.492 71.5947C634.289 70.3916 633.687 68.9561 633.687 67.2881C633.687 65.5928 634.289 64.1436 635.492 62.9404C636.695 61.7373 638.144 61.1357 639.84 61.1357ZM644.802 6.1748C646.142 6.1748 647.646 6.31152 649.314 6.58496C651.009 6.8584 652.691 7.33691 654.359 8.02051C656.027 8.67676 657.558 9.60645 658.953 10.8096C660.347 12.0127 661.468 13.5303 662.316 15.3623C663.191 17.167 663.629 19.3682 663.629 21.9658C663.629 24.4541 663.232 26.6416 662.439 28.5283C661.674 30.3877 660.675 32.042 659.445 33.4912C658.215 34.9131 656.888 36.1709 655.466 37.2646C654.045 38.3584 652.664 39.3428 651.324 40.2178C649.519 41.3936 648.084 42.5283 647.017 43.6221C644.775 46.001 643.299 48.3799 642.588 50.7588C641.904 53.0557 641.562 54.8467 641.562 56.1318V56.2959H637.994V52.3994C637.994 49.665 638.445 47.3271 639.347 45.3857C640.277 43.417 641.453 41.667 642.875 40.1357C644.324 38.6045 645.869 37.1689 647.509 35.8291C649.724 33.9697 651.72 31.9326 653.498 29.7178C655.275 27.4756 656.341 24.6865 656.697 21.3506C656.779 20.6396 656.82 19.9697 656.82 19.3408C656.82 17.4268 656.506 15.7178 655.877 14.2139C655.248 12.6826 654.318 11.4795 653.088 10.6045C651.884 9.70215 650.64 9.08691 649.355 8.75879C648.097 8.43066 647.017 8.2666 646.115 8.2666L644.802 8.38965C642.697 8.55371 640.892 9.45605 639.388 11.0967C638.021 12.6553 637.338 14.46 637.338 16.5107L637.379 17.085C637.488 18.2061 637.83 19.2451 638.404 20.2021C638.978 21.1592 639.58 21.9795 640.209 22.6631C640.865 23.4561 641.125 24.1123 640.988 24.6318C640.851 25.1514 640.455 25.5889 639.799 25.9443C638.295 26.874 636.736 27.3389 635.123 27.3389C634.384 27.3389 633.646 27.2295 632.908 27.0107C631.295 26.5459 629.927 25.6572 628.806 24.3447C627.713 23.0049 627.056 21.46 626.838 19.71C626.81 19.4365 626.797 19.1768 626.797 18.9307C626.797 16.7705 627.439 14.8018 628.724 13.0244C630.037 11.2471 631.677 9.81152 633.646 8.71777C636.189 7.32324 638.896 6.48926 641.767 6.21582C641.822 6.21582 642.095 6.20215 642.588 6.1748C643.08 6.1748 643.572 6.1748 644.064 6.1748H644.802Z" fill="url(#paint0_linear_1_509)"/>
</g>
<defs>
<linearGradient id="paint0_linear_1_509" x1="442.296" y1="12.2355" x2="933.568" y2="121.093" gradientUnits="userSpaceOnUse">
<stop stop-color="#4E48E3"/>
<stop offset="0.479167" stop-color="#35A9BD"/>
<stop offset="1" stop-color="#68CD71"/>
</linearGradient>
<clipPath id="clip0_1_509">
<rect width="664" height="103" fill="white"/>
</clipPath>
</defs>
</svg>
