<svg width="191" height="29" viewBox="0 0 191 29" fill="none" xmlns="http://www.w3.org/2000/svg">
<path d="M20.3486 19.9316C20.6585 20.9831 20.9629 22.04 21.2617 23.1025C21.4831 23.8441 21.7044 24.5911 21.9258 25.3438C21.9479 25.4212 21.9645 25.5042 21.9756 25.5928C21.9867 25.6702 21.9756 25.7422 21.9424 25.8086C21.9092 25.8861 21.8538 25.9525 21.7764 26.0078C21.71 26.0521 21.638 26.0908 21.5605 26.124C20.7305 26.5003 19.9004 26.8434 19.0703 27.1533C18.2402 27.4632 17.3714 27.6956 16.4639 27.8506C14.848 28.1162 13.221 28.1383 11.583 27.917C9.95611 27.6956 8.41212 27.2087 6.95118 26.4561C5.43491 25.6481 4.15659 24.5579 3.11622 23.1855C2.07586 21.8021 1.31772 20.2913 0.841811 18.6533C0.277351 16.6611 0.144541 14.6247 0.443371 12.5439C0.753271 10.4521 1.45606 8.52083 2.55177 6.75C3.65854 4.97917 5.13054 3.57357 6.96778 2.5332C10.3102 0.784514 13.7965 0.424804 17.4268 1.4541C18.5003 1.74186 19.4688 2.22331 20.332 2.89844C21.2174 3.63997 21.7432 4.56966 21.9092 5.6875C21.9977 6.87174 21.5993 7.86784 20.7139 8.67578C19.7842 9.4284 18.7383 9.6719 17.5762 9.4062C17.2552 9.3288 16.9674 9.1849 16.7129 8.97461C16.4583 8.74219 16.3311 8.45996 16.3311 8.12793C16.3864 7.77376 16.5469 7.45833 16.8125 7.18164C16.8789 7.10417 16.9398 7.02669 16.9951 6.94922C17.5374 6.14128 17.6979 5.26693 17.4766 4.32617C17.1556 3.28581 16.5413 2.58301 15.6338 2.21777C14.7373 1.84147 13.7578 1.72526 12.6953 1.86914C11.6439 2.01302 10.7308 2.32292 9.95611 2.79883C7.66505 4.34831 6.09897 6.4069 5.25782 8.97461C4.7155 10.7786 4.46648 12.7266 4.51075 14.8184C4.55502 16.9102 4.94239 18.9134 5.67286 20.8281C6.40333 22.7428 7.52117 24.3311 9.02641 25.5928C10.1553 26.4782 11.3506 26.9264 12.6123 26.9375C13.874 26.9375 15.0915 26.5446 16.2646 25.7588C17.2718 25.0615 18.1351 24.2148 18.8545 23.2188C19.5739 22.2227 20.0719 21.127 20.3486 19.9316ZM35.6221 5.87012C37.7249 5.87012 39.6396 6.36816 41.3662 7.36426C43.1038 8.36035 44.4873 9.6995 45.5166 11.3818C46.557 13.0531 47.0771 14.9069 47.0771 16.9434C47.0771 18.9798 46.557 20.8392 45.5166 22.5215C44.4873 24.1927 43.1038 25.5264 41.3662 26.5225C39.6396 27.5186 37.7249 28.0166 35.6221 28.0166C33.5081 28.0166 31.5824 27.5186 29.8447 26.5225C28.1182 25.5264 26.7347 24.1927 25.6943 22.5215C24.665 20.8392 24.1504 18.9798 24.1504 16.9434C24.1504 14.9069 24.665 13.0531 25.6943 11.3818C26.7347 9.6995 28.1182 8.36035 29.8447 7.36426C31.5824 6.36816 33.5081 5.87012 35.6221 5.87012ZM38.9092 21.8906C41.1449 20.3079 42.7165 18.7142 43.624 17.1094C44.3877 15.7702 44.7695 14.5417 44.7695 13.4238C44.7695 11.5866 44.1387 10.347 42.877 9.7051C42.0801 9.2956 40.6966 9.1849 38.7266 9.373C36.7565 9.5501 34.626 10.4355 32.335 12.0293C30.0882 13.5898 28.5111 15.1781 27.6035 16.7939C26.8509 18.1221 26.4746 19.3451 26.4746 20.4629C26.4746 21.7578 26.9837 22.8037 28.002 23.6006C29.0312 24.3975 30.4922 24.7461 32.3848 24.6465C34.2884 24.5358 36.4632 23.6172 38.9092 21.8906ZM72.0293 27.9834H71.8135C71.8135 27.9945 71.819 28 71.8301 28C71.8301 28.0111 71.8356 28.0221 71.8467 28.0332C71.2822 28.0443 70.7233 28.0498 70.1699 28.0498C69.3288 28.0498 68.4876 28.0387 67.6465 28.0166C67.569 28.0166 67.486 28.0055 67.3975 27.9834H64.1436L64.3428 27.8008C64.4645 27.668 64.6084 27.4577 64.7744 27.1699C64.9404 26.8822 65.0898 26.5059 65.2227 26.041C65.3555 25.5651 65.4219 24.984 65.4219 24.2979V13.5566C65.4108 13.2357 65.3444 12.8151 65.2227 12.2949C65.1009 11.7747 64.8851 11.2822 64.5752 10.8174C64.4202 10.6182 64.2598 10.4466 64.0938 10.3027C63.5846 9.8932 63.0312 9.6885 62.4336 9.6885H62.251C61.7751 9.7106 61.3047 9.8545 60.8398 10.1201C60.1426 10.5186 59.556 11.0387 59.0801 11.6807C58.6152 12.3115 58.2113 12.9867 57.8682 13.7061C57.4144 14.6911 56.9883 15.6927 56.5898 16.7109C56.4792 16.9876 56.3685 17.2699 56.2578 17.5576V25.1445L56.3076 25.5098C56.3519 25.7643 56.4238 26.0687 56.5234 26.4229C56.623 26.766 56.7614 27.0924 56.9385 27.4023C57.1156 27.7012 57.3424 27.917 57.6191 28.0498H49.75L49.9326 27.8506C50.0654 27.7288 50.2148 27.5241 50.3809 27.2363C50.5469 26.9486 50.6908 26.5723 50.8125 26.1074C50.9453 25.6315 51.0117 25.0449 51.0117 24.3477V10.668C51.0117 10.0814 50.8734 9.5391 50.5967 9.041C50.32 8.5319 49.9382 8.1224 49.4512 7.8125C49.4069 7.80143 49.3682 7.78483 49.335 7.7627L50.0488 7.7959H50.2314C50.6742 7.7959 51.2331 7.7627 51.9082 7.69629C52.5833 7.61882 53.3138 7.44173 54.0996 7.16504C54.8854 6.88835 55.6048 6.46224 56.2578 5.88672V15.8809C56.6452 14.9844 57.0436 14.0934 57.4531 13.208C57.8184 12.389 58.2279 11.5921 58.6816 10.8174C59.1465 10.0316 59.7165 9.3398 60.3916 8.74219C61.0335 8.17773 61.7419 7.74056 62.5166 7.43066C62.7269 7.33105 63.0755 7.21484 63.5625 7.08203C64.0052 6.96029 64.5365 6.89941 65.1562 6.89941H65.4053C65.7041 6.91048 66.0472 6.94922 66.4346 7.01562C66.833 7.08203 67.2536 7.23698 67.6963 7.48047C67.8623 7.54688 68.1169 7.71842 68.46 7.99512C68.8031 8.26074 69.1462 8.64258 69.4893 9.1406C69.932 9.849 70.2031 10.7676 70.3027 11.8965C70.3581 12.5716 70.3913 13.7005 70.4023 15.2832L70.4189 17.6406L70.4023 19.998V23.3516C70.4134 24.1152 70.5241 24.8678 70.7344 25.6094C70.9447 26.3509 71.249 27.0537 71.6475 27.7178C71.7581 27.8395 71.8854 27.9281 72.0293 27.9834ZM86.124 10.8008H82.0732V23.252C82.0732 24.1374 82.2503 24.8844 82.6045 25.4932C82.9697 26.1019 83.3848 26.5889 83.8496 26.9541C84.3255 27.3193 84.7406 27.585 85.0947 27.751C85.46 27.917 85.6536 28 85.6758 28C85.4544 28.0111 85.2275 28.0221 84.9951 28.0332C84.3089 28.0664 83.5895 28.083 82.8369 28.083C82.0843 28.083 81.3538 28.0166 80.6455 27.8838C79.9372 27.751 79.2952 27.5075 78.7197 27.1533C78.1442 26.7992 77.6849 26.29 77.3418 25.626C76.9987 24.9508 76.8271 24.071 76.8271 22.9863V10.8008H74.1543V9.8213H76.8271V6.55078C77.4359 6.39583 78.111 6.08594 78.8525 5.62109C79.6051 5.14518 80.2858 4.51432 80.8945 3.72852C81.5033 2.93164 81.8962 1.96875 82.0732 0.839844V9.8213H86.124V10.8008ZM106.876 28.0664H98.9902L99.289 27.7676C99.488 27.5573 99.688 27.2142 99.887 26.7383C99.355 26.8711 98.8353 27.026 98.3262 27.2031C96.5443 27.8561 94.9505 28.1439 93.5449 28.0664C92.1504 27.9889 90.9717 27.7012 90.0088 27.2031C89.0016 26.6829 88.2269 25.9248 87.6846 24.9287C87.2419 24.1097 87.0205 23.252 87.0205 22.3555C87.0205 21.0605 87.4798 19.9206 88.3984 18.9355C89.1289 18.1497 89.9922 17.5521 90.9883 17.1426C91.8516 16.7884 92.7591 16.473 93.7109 16.1963C94.8952 15.8532 96.0352 15.4437 97.1309 14.9678C98.2266 14.4808 99.156 13.7725 99.92 12.8428C100.684 11.9131 101.065 10.8893 101.065 9.7715C101.065 9.1296 100.955 8.62044 100.733 8.24414C100.125 7.18164 99.167 6.65039 97.8613 6.65039C96.8542 6.65039 95.9854 7.02669 95.2549 7.7793C94.6904 8.35482 94.4082 9.0355 94.4082 9.8213C94.4082 10.6182 94.7845 11.404 95.5371 12.1787C95.9355 12.6657 95.8857 13.0752 95.3877 13.4072C94.79 13.7614 94.1702 13.9385 93.5283 13.9385C92.499 13.9385 91.6413 13.5566 90.9551 12.793C90.4128 12.1842 90.1416 11.487 90.1416 10.7012C90.1416 9.8932 90.4017 9.1572 90.9219 8.49316C91.4531 7.8291 92.1172 7.28678 92.9141 6.86621C94.1758 6.21322 95.5703 5.88672 97.0977 5.88672C99.355 5.88672 101.314 6.52865 102.975 7.8125C103.273 8.03385 103.55 8.27734 103.805 8.54297L103.921 8.67578C104.972 9.9928 105.498 11.4482 105.498 13.042V24.6631C105.498 25.2829 105.592 25.8916 105.78 26.4893C106.035 27.3193 106.4 27.8451 106.876 28.0664ZM99.339 24.3145C99.671 24.0931 99.981 23.8607 100.269 23.6172C101.575 22.5104 102.471 21.3538 102.958 20.1475C103.19 19.5719 103.307 19.0407 103.307 18.5537C103.307 18.0114 103.157 17.5244 102.858 17.0928C102.327 16.307 101.464 15.9141 100.269 15.9141C98.5531 15.9141 96.7656 16.5394 94.9062 17.79C93.2572 18.9079 92.1006 20.1475 91.4365 21.5088C91.0824 22.2282 90.9053 22.8923 90.9053 23.501C90.9053 24.0433 91.0547 24.5303 91.3535 24.9619C91.918 25.7699 92.9251 26.1794 94.375 26.1904H94.4082C95.8359 26.1904 97.4795 25.5651 99.339 24.3145ZM121.419 12.5605C121.419 12.4499 121.447 12.3558 121.502 12.2783C121.557 12.2008 121.635 12.1178 121.734 12.0293C121.878 11.9076 122.039 11.7194 122.216 11.4648C122.559 10.9336 122.753 10.3415 122.797 9.6885V9.4727C122.797 8.89714 122.647 8.37142 122.349 7.89551C121.817 7.15397 121.159 6.74447 120.373 6.66699C120.218 6.64486 120.063 6.63379 119.908 6.63379C119.266 6.63379 118.591 6.7998 117.883 7.13184C117.186 7.4528 116.571 7.88997 116.04 8.44336C115.21 9.362 114.623 10.4245 114.28 11.6309C113.981 12.7044 113.832 13.7835 113.832 14.8682V15.2832C113.865 16.6888 114.142 18.0833 114.662 19.4668C115.182 20.8503 115.996 22.0068 117.103 22.9365C118.254 23.833 119.549 24.3034 120.987 24.3477H121.187C122.537 24.3477 123.771 23.916 124.889 23.0527C125.586 22.4772 126.156 21.7965 126.599 21.0107C126.621 20.9665 126.665 20.8835 126.731 20.7617C126.798 20.64 126.87 20.5127 126.947 20.3799C127.025 20.236 127.091 20.1087 127.146 19.998L127.229 19.8486L127.263 19.915C127.296 19.9593 127.335 20.0146 127.379 20.0811C127.423 20.1475 127.462 20.2083 127.495 20.2637C127.152 22.3444 126.228 24.0765 124.723 25.46C123.217 26.8434 121.469 27.679 119.477 27.9668C119.1 28.0221 118.729 28.0498 118.364 28.0498C116.782 28.0498 115.26 27.5573 113.799 26.5723C112.604 25.6868 111.646 24.5911 110.927 23.2852C110.218 21.9792 109.759 20.6012 109.549 19.1514C109.46 18.5316 109.416 17.9118 109.416 17.292C109.416 16.3955 109.532 15.333 109.765 14.1045C110.008 12.876 110.539 11.6087 111.358 10.3027C112.177 8.98568 113.268 7.93424 114.629 7.14844C116.311 6.21875 118.215 5.80371 120.34 5.90332C122.476 5.99186 124.324 6.65039 125.885 7.87891C126.416 8.31055 126.82 8.8252 127.097 9.4229C127.285 9.8324 127.379 10.2529 127.379 10.6846C127.379 10.9059 127.357 11.1273 127.312 11.3486C127.146 12.057 126.809 12.6602 126.3 13.1582C125.791 13.6562 125.182 13.9606 124.474 14.0713C124.352 14.0824 124.23 14.0879 124.108 14.0879C123.5 14.0879 122.908 13.9385 122.332 13.6396C121.768 13.3408 121.463 12.9811 121.419 12.5605ZM141.673 10.8008H137.622V23.252C137.622 24.1374 137.799 24.8844 138.153 25.4932C138.519 26.1019 138.934 26.5889 139.398 26.9541C139.874 27.3193 140.289 27.585 140.644 27.751C141.009 27.917 141.202 28 141.225 28C141.003 28.0111 140.776 28.0221 140.544 28.0332C139.858 28.0664 139.138 28.083 138.386 28.083C137.633 28.083 136.903 28.0166 136.194 27.8838C135.486 27.751 134.844 27.5075 134.269 27.1533C133.693 26.7992 133.234 26.29 132.891 25.626C132.548 24.9508 132.376 24.071 132.376 22.9863V10.8008H129.703V9.8213H132.376V6.55078C132.985 6.39583 133.66 6.08594 134.401 5.62109C135.154 5.14518 135.835 4.51432 136.443 3.72852C137.052 2.93164 137.445 1.96875 137.622 0.839844V9.8213H141.673V10.8008ZM164.517 28.0498L164.716 27.8506C164.838 27.7288 164.981 27.5241 165.147 27.2363C165.313 26.9486 165.463 26.5723 165.596 26.1074C165.729 25.6315 165.795 25.0449 165.795 24.3477V21.1436C165.773 21.1989 165.751 21.2487 165.729 21.293C165.695 21.3594 165.668 21.4202 165.646 21.4756C165.28 22.3389 164.865 23.18 164.4 23.999C163.947 24.818 163.382 25.5374 162.707 26.1572C162.076 26.7438 161.368 27.2031 160.582 27.5352C160.372 27.6458 160.023 27.7676 159.536 27.9004C159.093 28.0221 158.562 28.083 157.942 28.083H157.693C157.395 28.083 157.051 28.0443 156.664 27.9668C156.277 27.8893 155.856 27.7288 155.402 27.4854C155.236 27.4079 154.982 27.2308 154.639 26.9541C154.296 26.6663 153.958 26.2624 153.626 25.7422C153.172 25.0007 152.901 24.0378 152.812 22.8535C152.746 22.1452 152.713 20.9665 152.713 19.3174V10.6514C152.713 10.0648 152.575 9.5225 152.298 9.0244C152.021 8.5153 151.639 8.10579 151.152 7.7959C151.108 7.78483 151.069 7.76823 151.036 7.74609L151.7 7.7793H151.883C152.303 7.7793 152.835 7.74609 153.477 7.67969C154.118 7.60221 154.816 7.42513 155.568 7.14844C156.332 6.87174 157.04 6.44564 157.693 5.87012V21.1104C157.704 21.4535 157.765 21.8962 157.876 22.4385C157.998 22.9808 158.219 23.4954 158.54 23.9824C158.684 24.1927 158.844 24.3753 159.021 24.5303C159.52 24.9508 160.067 25.1611 160.665 25.1611H160.848C161.324 25.139 161.794 24.9896 162.259 24.7129C162.956 24.2923 163.543 23.75 164.019 23.0859C164.494 22.4219 164.898 21.7135 165.23 20.9609C165.43 20.5293 165.618 20.0921 165.795 19.6494V10.6514C165.795 10.0648 165.657 9.5225 165.38 9.0244C165.103 8.5153 164.716 8.10579 164.218 7.7959C164.185 7.78483 164.151 7.76823 164.118 7.74609L164.815 7.7793H164.998C165.441 7.7793 166 7.74609 166.675 7.67969C167.361 7.60221 168.091 7.42513 168.866 7.14844C169.652 6.87174 170.371 6.44564 171.024 5.87012V25.1279L171.091 25.5098C171.124 25.7643 171.19 26.0632 171.29 26.4062C171.39 26.7493 171.528 27.0758 171.705 27.3857C171.893 27.6956 172.126 27.917 172.402 28.0498H164.517ZM188.605 18.0889C189.258 18.6976 189.79 19.3893 190.199 20.1641C190.564 20.8613 190.747 21.6084 190.747 22.4053C190.747 22.516 190.736 22.6211 190.714 22.7207C190.559 24.1263 189.934 25.2773 188.838 26.1738C187.753 27.0592 186.552 27.6569 185.235 27.9668C184.405 28.166 183.575 28.2656 182.745 28.2656C181.915 28.2656 180.886 28.0996 179.657 27.7676C178.429 27.4355 177.211 26.7217 176.005 25.626C175.297 24.984 174.843 24.1982 174.644 23.2686C174.422 22.1839 174.649 21.293 175.324 20.5957C175.712 20.1973 176.176 19.9427 176.719 19.832C176.995 19.7767 177.272 19.749 177.549 19.749C177.814 19.749 178.08 19.7767 178.346 19.832C179.132 19.998 179.829 20.3301 180.438 20.8281C180.504 20.8835 180.565 20.9499 180.62 21.0273C180.664 21.0827 180.687 21.1436 180.687 21.21V21.2598C180.675 21.3483 180.637 21.4258 180.57 21.4922C180.504 21.5475 180.426 21.6029 180.338 21.6582L180.305 21.6914C179.641 22.2116 179.309 22.8812 179.309 23.7002C179.309 23.7887 179.314 23.8773 179.325 23.9658C179.425 24.7295 179.735 25.388 180.255 25.9414C180.786 26.4837 181.395 26.8877 182.081 27.1533C182.579 27.3415 183.238 27.4134 184.057 27.3691C184.887 27.3138 185.551 27.015 186.049 26.4727C186.547 25.9303 186.796 25.3493 186.796 24.7295C186.796 24.6852 186.785 24.486 186.763 24.1318C186.741 23.7666 186.552 23.2796 186.198 22.6709C185.623 21.6748 184.903 20.8281 184.04 20.1309C183.177 19.4225 182.269 18.7695 181.317 18.1719C180.211 17.4857 179.187 16.7109 178.246 15.8477C176.84 14.5417 176.154 13.1748 176.188 11.7471C176.221 10.3193 176.796 9.0798 177.914 8.02832C179.032 6.97689 180.46 6.30176 182.197 6.00293C182.695 5.91439 183.188 5.87012 183.675 5.87012C185.103 5.87012 186.475 6.21322 187.792 6.89941C188.644 7.35319 189.303 7.96745 189.768 8.74219C190.133 9.373 190.315 10.0205 190.315 10.6846C190.293 11.9574 189.79 12.8538 188.805 13.374C188.406 13.5954 187.919 13.7393 187.344 13.8057C187.167 13.8278 186.99 13.8389 186.812 13.8389C186.425 13.8389 186.016 13.7669 185.584 13.623C185.163 13.4681 184.892 13.2633 184.771 13.0088C184.649 12.7542 184.649 12.5273 184.771 12.3281C184.903 12.1289 185.031 11.974 185.152 11.8633C185.197 11.819 185.235 11.7747 185.269 11.7305C185.733 11.1882 185.988 10.5628 186.032 9.8545V9.6885C186.032 9.0355 185.827 8.45443 185.418 7.94531C184.71 7.07096 183.852 6.63932 182.845 6.65039C181.849 6.65039 181.063 7.11523 180.487 8.04492C180.244 8.43229 180.122 8.86393 180.122 9.3398C180.122 9.86 180.271 10.4245 180.57 11.0332C181.079 12.0736 181.766 12.9535 182.629 13.6729C183.503 14.3923 184.427 15.0563 185.401 15.665C186.575 16.3844 187.643 17.1924 188.605 18.0889Z" fill="#17151D"/>
</svg>
