<svg width="1598" height="312" viewBox="0 0 1598 312" fill="none" xmlns="http://www.w3.org/2000/svg">
<mask id="path-1-outside-1_1_498" maskUnits="userSpaceOnUse" x="-325.731" y="169.062" width="2329" height="143" fill="black">
<rect fill="white" x="-325.731" y="169.062" width="2329" height="143"/>
<path d="M84.7244 170.438C103.222 170.438 122.974 172.364 144.837 174.504L152.334 175.235C219.21 181.706 283.133 200.313 344.944 218.317C400.834 234.595 458.637 251.415 517.832 258.906C542.205 261.991 568.857 261.625 599.289 257.786C626.461 254.361 654.138 248.532 680.898 242.904C724.166 233.802 768.918 224.41 813.349 224.637C824.579 224.637 835.518 225.103 846.105 225.505C883.85 226.916 919.545 228.263 957.504 213.029C970.074 207.945 982.16 202.087 993.657 195.504C1004.37 189.537 1012.17 185.231 1023.03 184.035C1034.17 182.776 1048.29 184.765 1071.79 190.758C1102.94 198.702 1132.03 209.819 1160.15 220.583C1184.97 230.076 1210.64 239.883 1237 247.16C1266.5 255.305 1294.1 259.435 1321.36 259.75C1354.93 260.19 1390.21 255.822 1429.35 246.417C1434.01 245.301 1438.68 244.122 1443.35 242.879C1456.05 238.687 1468.69 234.281 1481.2 229.912C1514.16 218.405 1548.14 206.533 1582.03 199.08C1623.34 186.263 1665.7 175.398 1709.64 172.138C1764.57 168.046 1807.91 192.835 1849.84 216.806C1897.82 244.239 1943.17 270.149 2001.14 250.496L2002.27 250.106L2001.29 250.71C1982.29 262.356 1963.7 269.708 1944.42 273.183C1926.93 276.29 1908.83 276.216 1891.38 272.969C1856.98 266.926 1823.52 250.408 1791.18 234.444C1762.9 220.495 1733.66 206.067 1703.39 198.249C1685.22 193.58 1666.27 191.295 1647.24 191.475C1628.46 191.677 1609.78 193.654 1591.56 197.367C1588.41 197.972 1585.26 198.626 1582.09 199.331C1565.26 204.544 1548.67 210.096 1532.23 215.585C1503.29 225.241 1473.52 235.187 1443.49 243.131C1410.16 254.122 1376.4 263.589 1343.2 266.787C1266.19 274.215 1190.73 259.812 1117.77 245.888C1087.67 240.147 1056.57 234.218 1025.97 229.975C994.392 225.594 964.129 228.275 932.075 231.121C909.019 233.173 885.181 235.288 860.564 234.583C806.571 233.034 763.93 231.813 710.029 243.395C688.028 248.117 667.801 253.782 648.248 259.259C592.036 275.008 543.49 288.618 480.745 272.453C447.361 263.854 414.375 254.021 382.459 244.503C337.095 230.969 290.186 216.97 242.971 206.898C190.156 195.643 141.992 190.456 95.5873 191.06C64.9876 191.45 39.7581 196.7 16.1657 207.565C-4.79504 217.221 -21.6555 230 -39.4798 243.534C-43.3965 246.505 -47.3286 249.489 -51.3218 252.46C-66.1627 271.231 -83.2985 288.391 -117.891 300.213C-149.103 310.876 -180.621 313.697 -210.073 308.598C-213.684 308.862 -217.325 309.089 -220.966 309.252C-241.943 310.234 -260.364 309.504 -275.725 307.1C-293.488 304.305 -306.615 299.294 -314.709 292.218C-327.79 280.787 -327.683 264.093 -314.433 242.59L-314.295 242.388L-314.158 242.59C-292.937 272.05 -263.898 293.112 -230.192 303.524C-223.635 305.551 -216.898 307.163 -210.042 308.346C-174.853 305.828 -141.361 299.055 -124.914 293.238C-94.1002 282.235 -71.8849 267.429 -51.5667 252.347C-48.6597 248.671 -45.8444 244.931 -43.0139 241.167C-33.0996 228.011 -22.864 214.401 -7.4265 201.157C12.5551 184.01 34.6022 174.618 61.9889 171.609C69.5271 170.801 77.1226 170.41 84.7244 170.438V170.438ZM551.92 261.223C540.484 261.252 529.062 260.557 517.756 259.145C458.561 251.667 400.758 234.834 344.867 218.556C283.071 200.565 219.164 181.958 152.334 175.486L144.837 174.756C113.794 171.722 86.9734 169.104 62.0653 171.848C34.755 174.844 12.7539 184.211 -7.18184 201.321C-22.5888 214.54 -32.8243 228.137 -42.7233 241.28C-45.3549 244.78 -47.9711 248.255 -50.6485 251.68C-46.946 248.91 -43.2843 246.148 -39.6634 243.395C-21.8085 229.849 -4.94798 217.058 16.0434 207.376C39.6817 196.499 65.0029 191.236 95.6026 190.846C141.992 190.242 190.232 195.429 243.078 206.696C290.308 216.768 337.233 230.768 382.597 244.302C414.497 253.82 447.483 263.665 480.868 272.251C543.597 288.391 592.021 274.769 648.187 259.057C667.74 253.581 687.966 247.915 709.983 243.181C763.93 231.586 806.586 232.808 860.61 234.369C885.197 235.074 909.034 232.959 932.075 230.906C964.205 228.061 994.437 225.367 1026.05 229.761C1056.65 234.004 1087.71 239.946 1117.85 245.687C1190.78 259.536 1266.25 273.989 1343.15 266.586C1375.02 263.514 1407.41 254.651 1439.45 244.214C1436.13 245.053 1432.8 245.892 1429.46 246.732C1390.34 256.149 1354.99 260.518 1321.4 260.077C1294.08 259.724 1266.47 255.595 1236.94 247.487C1210.55 240.21 1184.92 230.39 1160.06 220.898C1131.94 210.146 1102.87 199.029 1071.73 191.085C1048.28 185.105 1034.19 183.154 1023.11 184.375C1012.31 185.558 1004.58 189.851 993.856 195.794C982.355 202.393 970.258 208.26 957.672 213.344C919.575 228.603 883.896 227.193 846.136 225.845C835.549 225.443 824.594 225.027 813.379 224.977H811.742C767.877 224.977 723.722 234.268 681.005 243.257C654.23 248.885 626.553 254.701 599.365 258.125C583.669 260.148 567.808 261.183 551.92 261.223V261.223ZM1960.59 257.672C1920.69 257.672 1885.93 237.793 1849.64 217.045C1807.76 193.125 1764.45 168.348 1709.64 172.427C1666.71 175.612 1625.25 186.049 1584.89 198.488C1587.09 198.022 1589.3 197.569 1591.5 197.141C1609.74 193.434 1628.44 191.457 1647.24 191.249C1666.29 191.081 1685.26 193.375 1703.45 198.047C1733.77 205.878 1763.01 220.306 1791.3 234.281C1823.63 250.232 1857.09 266.737 1891.41 272.767C1908.82 276.013 1926.88 276.09 1944.33 272.994C1963.22 269.582 1981.48 262.431 2000.11 251.151C1987.57 255.4 1974.15 257.614 1960.59 257.672V257.672ZM1447.51 241.834C1476.17 234.092 1504.53 224.624 1532.1 215.396C1547.6 210.222 1563.24 204.997 1579.03 200.049C1546.18 207.54 1513.24 219.034 1481.28 230.189C1470.11 234.079 1458.83 238.057 1447.51 241.834ZM-211.083 308.497C-217.616 307.325 -224.038 305.768 -230.299 303.839C-263.959 293.427 -293.029 272.364 -314.28 242.993C-327.346 264.282 -327.423 280.762 -314.479 292.093C-306.431 299.13 -293.365 304.116 -275.663 306.898C-260.364 309.303 -241.927 310.033 -220.982 309.051C-217.677 308.887 -214.372 308.686 -211.083 308.459V308.497ZM-181.019 310.889C-159.354 310.732 -137.941 307.048 -118.014 300.049C-83.9716 288.429 -66.8817 271.622 -52.2245 253.19C-72.3438 268.071 -94.3756 282.638 -124.807 293.477C-141.117 299.306 -174.118 305.966 -208.956 308.585C-199.758 310.102 -190.399 310.861 -181.019 310.851V310.889Z"/>
</mask>
<path d="M84.7244 170.438C103.222 170.438 122.974 172.364 144.837 174.504L152.334 175.235C219.21 181.706 283.133 200.313 344.944 218.317C400.834 234.595 458.637 251.415 517.832 258.906C542.205 261.991 568.857 261.625 599.289 257.786C626.461 254.361 654.138 248.532 680.898 242.904C724.166 233.802 768.918 224.41 813.349 224.637C824.579 224.637 835.518 225.103 846.105 225.505C883.85 226.916 919.545 228.263 957.504 213.029C970.074 207.945 982.16 202.087 993.657 195.504C1004.37 189.537 1012.17 185.231 1023.03 184.035C1034.17 182.776 1048.29 184.765 1071.79 190.758C1102.94 198.702 1132.03 209.819 1160.15 220.583C1184.97 230.076 1210.64 239.883 1237 247.16C1266.5 255.305 1294.1 259.435 1321.36 259.75C1354.93 260.19 1390.21 255.822 1429.35 246.417C1434.01 245.301 1438.68 244.122 1443.35 242.879C1456.05 238.687 1468.69 234.281 1481.2 229.912C1514.16 218.405 1548.14 206.533 1582.03 199.08C1623.34 186.263 1665.7 175.398 1709.64 172.138C1764.57 168.046 1807.91 192.835 1849.84 216.806C1897.82 244.239 1943.17 270.149 2001.14 250.496L2002.27 250.106L2001.29 250.71C1982.29 262.356 1963.7 269.708 1944.42 273.183C1926.93 276.29 1908.83 276.216 1891.38 272.969C1856.98 266.926 1823.52 250.408 1791.18 234.444C1762.9 220.495 1733.66 206.067 1703.39 198.249C1685.22 193.58 1666.27 191.295 1647.24 191.475C1628.46 191.677 1609.78 193.654 1591.56 197.367C1588.41 197.972 1585.26 198.626 1582.09 199.331C1565.26 204.544 1548.67 210.096 1532.23 215.585C1503.29 225.241 1473.52 235.187 1443.49 243.131C1410.16 254.122 1376.4 263.589 1343.2 266.787C1266.19 274.215 1190.73 259.812 1117.77 245.888C1087.67 240.147 1056.57 234.218 1025.97 229.975C994.392 225.594 964.129 228.275 932.075 231.121C909.019 233.173 885.181 235.288 860.564 234.583C806.571 233.034 763.93 231.813 710.029 243.395C688.028 248.117 667.801 253.782 648.248 259.259C592.036 275.008 543.49 288.618 480.745 272.453C447.361 263.854 414.375 254.021 382.459 244.503C337.095 230.969 290.186 216.97 242.971 206.898C190.156 195.643 141.992 190.456 95.5873 191.06C64.9876 191.45 39.7581 196.7 16.1657 207.565C-4.79504 217.221 -21.6555 230 -39.4798 243.534C-43.3965 246.505 -47.3286 249.489 -51.3218 252.46C-66.1627 271.231 -83.2985 288.391 -117.891 300.213C-149.103 310.876 -180.621 313.697 -210.073 308.598C-213.684 308.862 -217.325 309.089 -220.966 309.252C-241.943 310.234 -260.364 309.504 -275.725 307.1C-293.488 304.305 -306.615 299.294 -314.709 292.218C-327.79 280.787 -327.683 264.093 -314.433 242.59L-314.295 242.388L-314.158 242.59C-292.937 272.05 -263.898 293.112 -230.192 303.524C-223.635 305.551 -216.898 307.163 -210.042 308.346C-174.853 305.828 -141.361 299.055 -124.914 293.238C-94.1002 282.235 -71.8849 267.429 -51.5667 252.347C-48.6597 248.671 -45.8444 244.931 -43.0139 241.167C-33.0996 228.011 -22.864 214.401 -7.4265 201.157C12.5551 184.01 34.6022 174.618 61.9889 171.609C69.5271 170.801 77.1226 170.41 84.7244 170.438V170.438ZM551.92 261.223C540.484 261.252 529.062 260.557 517.756 259.145C458.561 251.667 400.758 234.834 344.867 218.556C283.071 200.565 219.164 181.958 152.334 175.486L144.837 174.756C113.794 171.722 86.9734 169.104 62.0653 171.848C34.755 174.844 12.7539 184.211 -7.18184 201.321C-22.5888 214.54 -32.8243 228.137 -42.7233 241.28C-45.3549 244.78 -47.9711 248.255 -50.6485 251.68C-46.946 248.91 -43.2843 246.148 -39.6634 243.395C-21.8085 229.849 -4.94798 217.058 16.0434 207.376C39.6817 196.499 65.0029 191.236 95.6026 190.846C141.992 190.242 190.232 195.429 243.078 206.696C290.308 216.768 337.233 230.768 382.597 244.302C414.497 253.82 447.483 263.665 480.868 272.251C543.597 288.391 592.021 274.769 648.187 259.057C667.74 253.581 687.966 247.915 709.983 243.181C763.93 231.586 806.586 232.808 860.61 234.369C885.197 235.074 909.034 232.959 932.075 230.906C964.205 228.061 994.437 225.367 1026.05 229.761C1056.65 234.004 1087.71 239.946 1117.85 245.687C1190.78 259.536 1266.25 273.989 1343.15 266.586C1375.02 263.514 1407.41 254.651 1439.45 244.214C1436.13 245.053 1432.8 245.892 1429.46 246.732C1390.34 256.149 1354.99 260.518 1321.4 260.077C1294.08 259.724 1266.47 255.595 1236.94 247.487C1210.55 240.21 1184.92 230.39 1160.06 220.898C1131.94 210.146 1102.87 199.029 1071.73 191.085C1048.28 185.105 1034.19 183.154 1023.11 184.375C1012.31 185.558 1004.58 189.851 993.856 195.794C982.355 202.393 970.258 208.26 957.672 213.344C919.575 228.603 883.896 227.193 846.136 225.845C835.549 225.443 824.594 225.027 813.379 224.977H811.742C767.877 224.977 723.722 234.268 681.005 243.257C654.23 248.885 626.553 254.701 599.365 258.125C583.669 260.148 567.808 261.183 551.92 261.223V261.223ZM1960.59 257.672C1920.69 257.672 1885.93 237.793 1849.64 217.045C1807.76 193.125 1764.45 168.348 1709.64 172.427C1666.71 175.612 1625.25 186.049 1584.89 198.488C1587.09 198.022 1589.3 197.569 1591.5 197.141C1609.74 193.434 1628.44 191.457 1647.24 191.249C1666.29 191.081 1685.26 193.375 1703.45 198.047C1733.77 205.878 1763.01 220.306 1791.3 234.281C1823.63 250.232 1857.09 266.737 1891.41 272.767C1908.82 276.013 1926.88 276.09 1944.33 272.994C1963.22 269.582 1981.48 262.431 2000.11 251.151C1987.57 255.4 1974.15 257.614 1960.59 257.672V257.672ZM1447.51 241.834C1476.17 234.092 1504.53 224.624 1532.1 215.396C1547.6 210.222 1563.24 204.997 1579.03 200.049C1546.18 207.54 1513.24 219.034 1481.28 230.189C1470.11 234.079 1458.83 238.057 1447.51 241.834ZM-211.083 308.497C-217.616 307.325 -224.038 305.768 -230.299 303.839C-263.959 293.427 -293.029 272.364 -314.28 242.993C-327.346 264.282 -327.423 280.762 -314.479 292.093C-306.431 299.13 -293.365 304.116 -275.663 306.898C-260.364 309.303 -241.927 310.033 -220.982 309.051C-217.677 308.887 -214.372 308.686 -211.083 308.459V308.497ZM-181.019 310.889C-159.354 310.732 -137.941 307.048 -118.014 300.049C-83.9716 288.429 -66.8817 271.622 -52.2245 253.19C-72.3438 268.071 -94.3756 282.638 -124.807 293.477C-141.117 299.306 -174.118 305.966 -208.956 308.585C-199.758 310.102 -190.399 310.861 -181.019 310.851V310.889Z" fill="white" fill-opacity="0.5"/>
<path d="M84.7244 170.438C103.222 170.438 122.974 172.364 144.837 174.504L152.334 175.235C219.21 181.706 283.133 200.313 344.944 218.317C400.834 234.595 458.637 251.415 517.832 258.906C542.205 261.991 568.857 261.625 599.289 257.786C626.461 254.361 654.138 248.532 680.898 242.904C724.166 233.802 768.918 224.41 813.349 224.637C824.579 224.637 835.518 225.103 846.105 225.505C883.85 226.916 919.545 228.263 957.504 213.029C970.074 207.945 982.16 202.087 993.657 195.504C1004.37 189.537 1012.17 185.231 1023.03 184.035C1034.17 182.776 1048.29 184.765 1071.79 190.758C1102.94 198.702 1132.03 209.819 1160.15 220.583C1184.97 230.076 1210.64 239.883 1237 247.16C1266.5 255.305 1294.1 259.435 1321.36 259.75C1354.93 260.19 1390.21 255.822 1429.35 246.417C1434.01 245.301 1438.68 244.122 1443.35 242.879C1456.05 238.687 1468.69 234.281 1481.2 229.912C1514.16 218.405 1548.14 206.533 1582.03 199.08C1623.34 186.263 1665.7 175.398 1709.64 172.138C1764.57 168.046 1807.91 192.835 1849.84 216.806C1897.82 244.239 1943.17 270.149 2001.14 250.496L2002.27 250.106L2001.29 250.71C1982.29 262.356 1963.7 269.708 1944.42 273.183C1926.93 276.29 1908.83 276.216 1891.38 272.969C1856.98 266.926 1823.52 250.408 1791.18 234.444C1762.9 220.495 1733.66 206.067 1703.39 198.249C1685.22 193.58 1666.27 191.295 1647.24 191.475C1628.46 191.677 1609.78 193.654 1591.56 197.367C1588.41 197.972 1585.26 198.626 1582.09 199.331C1565.26 204.544 1548.67 210.096 1532.23 215.585C1503.29 225.241 1473.52 235.187 1443.49 243.131C1410.16 254.122 1376.4 263.589 1343.2 266.787C1266.19 274.215 1190.73 259.812 1117.77 245.888C1087.67 240.147 1056.57 234.218 1025.97 229.975C994.392 225.594 964.129 228.275 932.075 231.121C909.019 233.173 885.181 235.288 860.564 234.583C806.571 233.034 763.93 231.813 710.029 243.395C688.028 248.117 667.801 253.782 648.248 259.259C592.036 275.008 543.49 288.618 480.745 272.453C447.361 263.854 414.375 254.021 382.459 244.503C337.095 230.969 290.186 216.97 242.971 206.898C190.156 195.643 141.992 190.456 95.5873 191.06C64.9876 191.45 39.7581 196.7 16.1657 207.565C-4.79504 217.221 -21.6555 230 -39.4798 243.534C-43.3965 246.505 -47.3286 249.489 -51.3218 252.46C-66.1627 271.231 -83.2985 288.391 -117.891 300.213C-149.103 310.876 -180.621 313.697 -210.073 308.598C-213.684 308.862 -217.325 309.089 -220.966 309.252C-241.943 310.234 -260.364 309.504 -275.725 307.1C-293.488 304.305 -306.615 299.294 -314.709 292.218C-327.79 280.787 -327.683 264.093 -314.433 242.59L-314.295 242.388L-314.158 242.59C-292.937 272.05 -263.898 293.112 -230.192 303.524C-223.635 305.551 -216.898 307.163 -210.042 308.346C-174.853 305.828 -141.361 299.055 -124.914 293.238C-94.1002 282.235 -71.8849 267.429 -51.5667 252.347C-48.6597 248.671 -45.8444 244.931 -43.0139 241.167C-33.0996 228.011 -22.864 214.401 -7.4265 201.157C12.5551 184.01 34.6022 174.618 61.9889 171.609C69.5271 170.801 77.1226 170.41 84.7244 170.438V170.438ZM551.92 261.223C540.484 261.252 529.062 260.557 517.756 259.145C458.561 251.667 400.758 234.834 344.867 218.556C283.071 200.565 219.164 181.958 152.334 175.486L144.837 174.756C113.794 171.722 86.9734 169.104 62.0653 171.848C34.755 174.844 12.7539 184.211 -7.18184 201.321C-22.5888 214.54 -32.8243 228.137 -42.7233 241.28C-45.3549 244.78 -47.9711 248.255 -50.6485 251.68C-46.946 248.91 -43.2843 246.148 -39.6634 243.395C-21.8085 229.849 -4.94798 217.058 16.0434 207.376C39.6817 196.499 65.0029 191.236 95.6026 190.846C141.992 190.242 190.232 195.429 243.078 206.696C290.308 216.768 337.233 230.768 382.597 244.302C414.497 253.82 447.483 263.665 480.868 272.251C543.597 288.391 592.021 274.769 648.187 259.057C667.74 253.581 687.966 247.915 709.983 243.181C763.93 231.586 806.586 232.808 860.61 234.369C885.197 235.074 909.034 232.959 932.075 230.906C964.205 228.061 994.437 225.367 1026.05 229.761C1056.65 234.004 1087.71 239.946 1117.85 245.687C1190.78 259.536 1266.25 273.989 1343.15 266.586C1375.02 263.514 1407.41 254.651 1439.45 244.214C1436.13 245.053 1432.8 245.892 1429.46 246.732C1390.34 256.149 1354.99 260.518 1321.4 260.077C1294.08 259.724 1266.47 255.595 1236.94 247.487C1210.55 240.21 1184.92 230.39 1160.06 220.898C1131.94 210.146 1102.87 199.029 1071.73 191.085C1048.28 185.105 1034.19 183.154 1023.11 184.375C1012.31 185.558 1004.58 189.851 993.856 195.794C982.355 202.393 970.258 208.26 957.672 213.344C919.575 228.603 883.896 227.193 846.136 225.845C835.549 225.443 824.594 225.027 813.379 224.977H811.742C767.877 224.977 723.722 234.268 681.005 243.257C654.23 248.885 626.553 254.701 599.365 258.125C583.669 260.148 567.808 261.183 551.92 261.223V261.223ZM1960.59 257.672C1920.69 257.672 1885.93 237.793 1849.64 217.045C1807.76 193.125 1764.45 168.348 1709.64 172.427C1666.71 175.612 1625.25 186.049 1584.89 198.488C1587.09 198.022 1589.3 197.569 1591.5 197.141C1609.74 193.434 1628.44 191.457 1647.24 191.249C1666.29 191.081 1685.26 193.375 1703.45 198.047C1733.77 205.878 1763.01 220.306 1791.3 234.281C1823.63 250.232 1857.09 266.737 1891.41 272.767C1908.82 276.013 1926.88 276.09 1944.33 272.994C1963.22 269.582 1981.48 262.431 2000.11 251.151C1987.57 255.4 1974.15 257.614 1960.59 257.672V257.672ZM1447.51 241.834C1476.17 234.092 1504.53 224.624 1532.1 215.396C1547.6 210.222 1563.24 204.997 1579.03 200.049C1546.18 207.54 1513.24 219.034 1481.28 230.189C1470.11 234.079 1458.83 238.057 1447.51 241.834ZM-211.083 308.497C-217.616 307.325 -224.038 305.768 -230.299 303.839C-263.959 293.427 -293.029 272.364 -314.28 242.993C-327.346 264.282 -327.423 280.762 -314.479 292.093C-306.431 299.13 -293.365 304.116 -275.663 306.898C-260.364 309.303 -241.927 310.033 -220.982 309.051C-217.677 308.887 -214.372 308.686 -211.083 308.459V308.497ZM-181.019 310.889C-159.354 310.732 -137.941 307.048 -118.014 300.049C-83.9716 288.429 -66.8817 271.622 -52.2245 253.19C-72.3438 268.071 -94.3756 282.638 -124.807 293.477C-141.117 299.306 -174.118 305.966 -208.956 308.585C-199.758 310.102 -190.399 310.861 -181.019 310.851V310.889Z" stroke="white" stroke-opacity="0.5" mask="url(#path-1-outside-1_1_498)"/>
<mask id="path-2-outside-2_1_498" maskUnits="userSpaceOnUse" x="-273.406" y="94.5073" width="2283" height="150" fill="black">
<rect fill="white" x="-273.406" y="94.5073" width="2283" height="150"/>
<path d="M1747.57 95.7056C1769.67 95.7056 1791.22 100.515 1812.95 110.247C1838.33 121.578 1860.82 138.108 1882.58 154.072C1922.14 183.028 1959.52 210.486 2007.26 201.422L2007.59 201.359L2007.43 201.61C2001.2 210.7 1981.42 209.794 1946.9 198.803C1916.64 189.172 1879.67 173.409 1843.92 158.176C1797.8 138.523 1754.24 119.953 1735.75 119.563C1713.18 119.072 1689.45 123.667 1661.07 134.029C1636.01 143.169 1611.33 155.305 1585.2 168.147C1541.99 189.398 1497.3 211.367 1451.41 218.254C1399.39 226.06 1350.95 224.234 1299.09 212.513C1252.33 201.95 1206.95 184.237 1158.9 165.503L1145.34 160.215C1112.72 147.538 1086.91 143.37 1064.1 147.11C1043.2 150.534 1026.45 160.09 1007.06 171.156C985.396 183.506 960.855 197.494 924.196 206.495C888.823 215.182 853.312 211.204 815.72 206.999C788.395 203.952 760.136 200.792 731.939 202.958C708.744 204.733 685.657 209.605 663.334 214.288C643.551 218.468 623.095 222.774 602.701 224.914C557.75 229.61 530.057 221.288 494.99 210.763C480.7 206.458 465.92 202.026 448.188 197.884C397.484 186.024 342.986 180.145 290.293 174.467C271.322 172.415 251.707 170.3 232.796 167.946C214.896 165.73 193.675 161.273 171.199 156.552C125.897 147.047 74.5503 136.27 39.2994 142.162C25.2083 144.516 12.1422 149.716 -0.633135 158.176C-12.0621 165.73 -22.313 175.096 -32.2273 184.186C-42.6159 193.692 -53.3411 203.524 -65.7034 211.569C-86.9882 225.256 -111.626 234.985 -137.919 240.085C-165.458 245.309 -191.33 244.541 -212.995 237.856C-244.666 228.099 -265.198 206.231 -272.374 174.618V174.505H-272.221C-244.849 169.972 -218.472 178.471 -192.967 186.692C-170.094 194.057 -148.491 201.019 -126.26 199.281C-94.2222 196.864 -78.5705 185.068 -60.4708 171.408C-50.6598 163.672 -40.1212 156.588 -28.9532 150.219C3.31421 132.38 45.7254 124.385 100.728 125.795C148.862 127.054 198.846 134.998 247.163 142.703C275.804 147.261 302.839 151.516 327.35 154.034C368.491 158.239 409.357 166.082 448.876 173.661C486.483 180.875 525.375 188.341 563.625 192.42C606.357 196.977 644.072 196.763 678.909 191.765C718.413 186.087 760.106 190.406 800.421 194.585C830.026 197.645 860.641 200.817 889.16 199.747C903.271 199.338 917.277 197.585 930.898 194.522C944.726 191.375 957.87 186.464 969.851 179.969C983.009 172.83 994.591 165.78 1005.78 158.969C1029.26 144.667 1049.55 132.329 1073.66 126.022C1099.88 119.173 1128.74 120.256 1164.33 129.446C1200.73 138.838 1232.12 154.046 1262.48 168.751C1315.86 194.674 1366.22 219.098 1438.13 210.7C1495.63 203.977 1542.54 177.828 1587.9 152.536C1609.26 140.638 1631.31 128.351 1653.86 118.455C1679.21 107.351 1702.82 100.414 1725.89 97.229C1733.06 96.2296 1740.31 95.72 1747.57 95.7056ZM1988.76 203.436C1949.44 203.436 1916.74 179.453 1882.38 154.26C1860.64 138.309 1838.15 121.817 1812.8 110.461C1784.12 97.6193 1755.74 93.3766 1726.02 97.4556C1702.93 100.628 1679.4 107.527 1654.11 118.657C1631.48 128.565 1609.43 140.852 1588.12 152.737C1542.72 178.042 1495.78 204.217 1438.18 210.939C1366.27 219.362 1315.78 194.925 1262.32 169.041C1231.98 154.349 1200.6 139.153 1164.24 129.761C1087.08 109.869 1053.05 130.579 1005.96 159.246C994.759 166.057 983.193 173.095 970.035 180.246C958.021 186.759 944.841 191.682 930.974 194.837C917.335 197.911 903.308 199.669 889.175 200.075C860.564 201.145 829.934 197.972 800.329 194.9C760.029 190.733 718.368 186.415 678.894 192.08C644.026 197.116 606.296 197.305 563.518 192.747C525.268 188.668 486.407 181.202 448.769 173.989C409.25 166.435 368.384 158.566 327.258 154.361C302.778 151.843 275.697 147.55 247.056 143.03C198.754 135.338 148.785 127.369 100.667 126.135C45.7406 124.725 3.37534 132.707 -28.8308 150.509C-41.5756 157.559 -51.1073 164.735 -60.3178 171.685C-78.4787 185.37 -94.1764 197.191 -126.306 199.621C-148.598 201.308 -170.247 194.346 -193.151 186.956C-218.579 178.773 -244.849 170.3 -272.083 174.757C-264.907 206.231 -244.451 227.973 -212.934 237.705C-191.33 244.365 -165.504 245.133 -138.041 239.908C-111.748 234.814 -87.113 225.08 -65.8411 211.38C-53.4941 203.36 -42.7689 193.528 -32.3956 184.023C-22.466 174.933 -12.215 165.528 -0.755467 157.987C12.0658 149.539 25.1624 144.289 39.2994 141.923C74.6268 136.031 126.004 146.807 171.337 156.325C193.797 161.034 215.018 165.491 232.904 167.656C251.814 170.01 271.429 172.125 290.4 174.177C343.108 179.868 397.606 185.747 448.341 197.594C466.088 201.749 480.868 206.193 495.158 210.486C530.179 220.999 557.887 229.371 602.716 224.624C623.095 222.484 643.536 218.179 663.319 214.011C685.657 209.303 708.759 204.431 731.969 202.681C760.197 200.515 788.487 203.675 815.828 206.734C853.389 210.927 888.869 214.893 924.166 206.231C960.778 197.242 985.365 183.255 1006.94 170.917C1026.37 159.838 1043.14 150.27 1064.1 146.833C1086.97 143.056 1112.84 147.261 1145.52 159.964L1159.09 165.251C1207.14 183.985 1252.5 201.686 1299.23 212.249C1351.05 223.957 1399.41 225.783 1451.43 217.977C1497.25 211.103 1541.91 189.147 1585.1 167.908C1611.24 155.054 1635.93 142.917 1661.01 133.764C1689.43 123.403 1713.21 118.808 1735.82 119.286C1754.38 119.689 1797.97 138.259 1844.13 157.924C1913.84 187.636 1992.8 221.301 2007.04 201.711C2001.05 202.845 1994.91 203.423 1988.76 203.436V203.436Z"/>
</mask>
<path d="M1747.57 95.7056C1769.67 95.7056 1791.22 100.515 1812.95 110.247C1838.33 121.578 1860.82 138.108 1882.58 154.072C1922.14 183.028 1959.52 210.486 2007.26 201.422L2007.59 201.359L2007.43 201.61C2001.2 210.7 1981.42 209.794 1946.9 198.803C1916.64 189.172 1879.67 173.409 1843.92 158.176C1797.8 138.523 1754.24 119.953 1735.75 119.563C1713.18 119.072 1689.45 123.667 1661.07 134.029C1636.01 143.169 1611.33 155.305 1585.2 168.147C1541.99 189.398 1497.3 211.367 1451.41 218.254C1399.39 226.06 1350.95 224.234 1299.09 212.513C1252.33 201.95 1206.95 184.237 1158.9 165.503L1145.34 160.215C1112.72 147.538 1086.91 143.37 1064.1 147.11C1043.2 150.534 1026.45 160.09 1007.06 171.156C985.396 183.506 960.855 197.494 924.196 206.495C888.823 215.182 853.312 211.204 815.72 206.999C788.395 203.952 760.136 200.792 731.939 202.958C708.744 204.733 685.657 209.605 663.334 214.288C643.551 218.468 623.095 222.774 602.701 224.914C557.75 229.61 530.057 221.288 494.99 210.763C480.7 206.458 465.92 202.026 448.188 197.884C397.484 186.024 342.986 180.145 290.293 174.467C271.322 172.415 251.707 170.3 232.796 167.946C214.896 165.73 193.675 161.273 171.199 156.552C125.897 147.047 74.5503 136.27 39.2994 142.162C25.2083 144.516 12.1422 149.716 -0.633135 158.176C-12.0621 165.73 -22.313 175.096 -32.2273 184.186C-42.6159 193.692 -53.3411 203.524 -65.7034 211.569C-86.9882 225.256 -111.626 234.985 -137.919 240.085C-165.458 245.309 -191.33 244.541 -212.995 237.856C-244.666 228.099 -265.198 206.231 -272.374 174.618V174.505H-272.221C-244.849 169.972 -218.472 178.471 -192.967 186.692C-170.094 194.057 -148.491 201.019 -126.26 199.281C-94.2222 196.864 -78.5705 185.068 -60.4708 171.408C-50.6598 163.672 -40.1212 156.588 -28.9532 150.219C3.31421 132.38 45.7254 124.385 100.728 125.795C148.862 127.054 198.846 134.998 247.163 142.703C275.804 147.261 302.839 151.516 327.35 154.034C368.491 158.239 409.357 166.082 448.876 173.661C486.483 180.875 525.375 188.341 563.625 192.42C606.357 196.977 644.072 196.763 678.909 191.765C718.413 186.087 760.106 190.406 800.421 194.585C830.026 197.645 860.641 200.817 889.16 199.747C903.271 199.338 917.277 197.585 930.898 194.522C944.726 191.375 957.87 186.464 969.851 179.969C983.009 172.83 994.591 165.78 1005.78 158.969C1029.26 144.667 1049.55 132.329 1073.66 126.022C1099.88 119.173 1128.74 120.256 1164.33 129.446C1200.73 138.838 1232.12 154.046 1262.48 168.751C1315.86 194.674 1366.22 219.098 1438.13 210.7C1495.63 203.977 1542.54 177.828 1587.9 152.536C1609.26 140.638 1631.31 128.351 1653.86 118.455C1679.21 107.351 1702.82 100.414 1725.89 97.229C1733.06 96.2296 1740.31 95.72 1747.57 95.7056ZM1988.76 203.436C1949.44 203.436 1916.74 179.453 1882.38 154.26C1860.64 138.309 1838.15 121.817 1812.8 110.461C1784.12 97.6193 1755.74 93.3766 1726.02 97.4556C1702.93 100.628 1679.4 107.527 1654.11 118.657C1631.48 128.565 1609.43 140.852 1588.12 152.737C1542.72 178.042 1495.78 204.217 1438.18 210.939C1366.27 219.362 1315.78 194.925 1262.32 169.041C1231.98 154.349 1200.6 139.153 1164.24 129.761C1087.08 109.869 1053.05 130.579 1005.96 159.246C994.759 166.057 983.193 173.095 970.035 180.246C958.021 186.759 944.841 191.682 930.974 194.837C917.335 197.911 903.308 199.669 889.175 200.075C860.564 201.145 829.934 197.972 800.329 194.9C760.029 190.733 718.368 186.415 678.894 192.08C644.026 197.116 606.296 197.305 563.518 192.747C525.268 188.668 486.407 181.202 448.769 173.989C409.25 166.435 368.384 158.566 327.258 154.361C302.778 151.843 275.697 147.55 247.056 143.03C198.754 135.338 148.785 127.369 100.667 126.135C45.7406 124.725 3.37534 132.707 -28.8308 150.509C-41.5756 157.559 -51.1073 164.735 -60.3178 171.685C-78.4787 185.37 -94.1764 197.191 -126.306 199.621C-148.598 201.308 -170.247 194.346 -193.151 186.956C-218.579 178.773 -244.849 170.3 -272.083 174.757C-264.907 206.231 -244.451 227.973 -212.934 237.705C-191.33 244.365 -165.504 245.133 -138.041 239.908C-111.748 234.814 -87.113 225.08 -65.8411 211.38C-53.4941 203.36 -42.7689 193.528 -32.3956 184.023C-22.466 174.933 -12.215 165.528 -0.755467 157.987C12.0658 149.539 25.1624 144.289 39.2994 141.923C74.6268 136.031 126.004 146.807 171.337 156.325C193.797 161.034 215.018 165.491 232.904 167.656C251.814 170.01 271.429 172.125 290.4 174.177C343.108 179.868 397.606 185.747 448.341 197.594C466.088 201.749 480.868 206.193 495.158 210.486C530.179 220.999 557.887 229.371 602.716 224.624C623.095 222.484 643.536 218.179 663.319 214.011C685.657 209.303 708.759 204.431 731.969 202.681C760.197 200.515 788.487 203.675 815.828 206.734C853.389 210.927 888.869 214.893 924.166 206.231C960.778 197.242 985.365 183.255 1006.94 170.917C1026.37 159.838 1043.14 150.27 1064.1 146.833C1086.97 143.056 1112.84 147.261 1145.52 159.964L1159.09 165.251C1207.14 183.985 1252.5 201.686 1299.23 212.249C1351.05 223.957 1399.41 225.783 1451.43 217.977C1497.25 211.103 1541.91 189.147 1585.1 167.908C1611.24 155.054 1635.93 142.917 1661.01 133.764C1689.43 123.403 1713.21 118.808 1735.82 119.286C1754.38 119.689 1797.97 138.259 1844.13 157.924C1913.84 187.636 1992.8 221.301 2007.04 201.711C2001.05 202.845 1994.91 203.423 1988.76 203.436V203.436Z" fill="white" fill-opacity="0.5"/>
<path d="M1747.57 95.7056C1769.67 95.7056 1791.22 100.515 1812.95 110.247C1838.33 121.578 1860.82 138.108 1882.58 154.072C1922.14 183.028 1959.52 210.486 2007.26 201.422L2007.59 201.359L2007.43 201.61C2001.2 210.7 1981.42 209.794 1946.9 198.803C1916.64 189.172 1879.67 173.409 1843.92 158.176C1797.8 138.523 1754.24 119.953 1735.75 119.563C1713.18 119.072 1689.45 123.667 1661.07 134.029C1636.01 143.169 1611.33 155.305 1585.2 168.147C1541.99 189.398 1497.3 211.367 1451.41 218.254C1399.39 226.06 1350.95 224.234 1299.09 212.513C1252.33 201.95 1206.95 184.237 1158.9 165.503L1145.34 160.215C1112.72 147.538 1086.91 143.37 1064.1 147.11C1043.2 150.534 1026.45 160.09 1007.06 171.156C985.396 183.506 960.855 197.494 924.196 206.495C888.823 215.182 853.312 211.204 815.72 206.999C788.395 203.952 760.136 200.792 731.939 202.958C708.744 204.733 685.657 209.605 663.334 214.288C643.551 218.468 623.095 222.774 602.701 224.914C557.75 229.61 530.057 221.288 494.99 210.763C480.7 206.458 465.92 202.026 448.188 197.884C397.484 186.024 342.986 180.145 290.293 174.467C271.322 172.415 251.707 170.3 232.796 167.946C214.896 165.73 193.675 161.273 171.199 156.552C125.897 147.047 74.5503 136.27 39.2994 142.162C25.2083 144.516 12.1422 149.716 -0.633135 158.176C-12.0621 165.73 -22.313 175.096 -32.2273 184.186C-42.6159 193.692 -53.3411 203.524 -65.7034 211.569C-86.9882 225.256 -111.626 234.985 -137.919 240.085C-165.458 245.309 -191.33 244.541 -212.995 237.856C-244.666 228.099 -265.198 206.231 -272.374 174.618V174.505H-272.221C-244.849 169.972 -218.472 178.471 -192.967 186.692C-170.094 194.057 -148.491 201.019 -126.26 199.281C-94.2222 196.864 -78.5705 185.068 -60.4708 171.408C-50.6598 163.672 -40.1212 156.588 -28.9532 150.219C3.31421 132.38 45.7254 124.385 100.728 125.795C148.862 127.054 198.846 134.998 247.163 142.703C275.804 147.261 302.839 151.516 327.35 154.034C368.491 158.239 409.357 166.082 448.876 173.661C486.483 180.875 525.375 188.341 563.625 192.42C606.357 196.977 644.072 196.763 678.909 191.765C718.413 186.087 760.106 190.406 800.421 194.585C830.026 197.645 860.641 200.817 889.16 199.747C903.271 199.338 917.277 197.585 930.898 194.522C944.726 191.375 957.87 186.464 969.851 179.969C983.009 172.83 994.591 165.78 1005.78 158.969C1029.26 144.667 1049.55 132.329 1073.66 126.022C1099.88 119.173 1128.74 120.256 1164.33 129.446C1200.73 138.838 1232.12 154.046 1262.48 168.751C1315.86 194.674 1366.22 219.098 1438.13 210.7C1495.63 203.977 1542.54 177.828 1587.9 152.536C1609.26 140.638 1631.31 128.351 1653.86 118.455C1679.21 107.351 1702.82 100.414 1725.89 97.229C1733.06 96.2296 1740.31 95.72 1747.57 95.7056ZM1988.76 203.436C1949.44 203.436 1916.74 179.453 1882.38 154.26C1860.64 138.309 1838.15 121.817 1812.8 110.461C1784.12 97.6193 1755.74 93.3766 1726.02 97.4556C1702.93 100.628 1679.4 107.527 1654.11 118.657C1631.48 128.565 1609.43 140.852 1588.12 152.737C1542.72 178.042 1495.78 204.217 1438.18 210.939C1366.27 219.362 1315.78 194.925 1262.32 169.041C1231.98 154.349 1200.6 139.153 1164.24 129.761C1087.08 109.869 1053.05 130.579 1005.96 159.246C994.759 166.057 983.193 173.095 970.035 180.246C958.021 186.759 944.841 191.682 930.974 194.837C917.335 197.911 903.308 199.669 889.175 200.075C860.564 201.145 829.934 197.972 800.329 194.9C760.029 190.733 718.368 186.415 678.894 192.08C644.026 197.116 606.296 197.305 563.518 192.747C525.268 188.668 486.407 181.202 448.769 173.989C409.25 166.435 368.384 158.566 327.258 154.361C302.778 151.843 275.697 147.55 247.056 143.03C198.754 135.338 148.785 127.369 100.667 126.135C45.7406 124.725 3.37534 132.707 -28.8308 150.509C-41.5756 157.559 -51.1073 164.735 -60.3178 171.685C-78.4787 185.37 -94.1764 197.191 -126.306 199.621C-148.598 201.308 -170.247 194.346 -193.151 186.956C-218.579 178.773 -244.849 170.3 -272.083 174.757C-264.907 206.231 -244.451 227.973 -212.934 237.705C-191.33 244.365 -165.504 245.133 -138.041 239.908C-111.748 234.814 -87.113 225.08 -65.8411 211.38C-53.4941 203.36 -42.7689 193.528 -32.3956 184.023C-22.466 174.933 -12.215 165.528 -0.755467 157.987C12.0658 149.539 25.1624 144.289 39.2994 141.923C74.6268 136.031 126.004 146.807 171.337 156.325C193.797 161.034 215.018 165.491 232.904 167.656C251.814 170.01 271.429 172.125 290.4 174.177C343.108 179.868 397.606 185.747 448.341 197.594C466.088 201.749 480.868 206.193 495.158 210.486C530.179 220.999 557.887 229.371 602.716 224.624C623.095 222.484 643.536 218.179 663.319 214.011C685.657 209.303 708.759 204.431 731.969 202.681C760.197 200.515 788.487 203.675 815.828 206.734C853.389 210.927 888.869 214.893 924.166 206.231C960.778 197.242 985.365 183.255 1006.94 170.917C1026.37 159.838 1043.14 150.27 1064.1 146.833C1086.97 143.056 1112.84 147.261 1145.52 159.964L1159.09 165.251C1207.14 183.985 1252.5 201.686 1299.23 212.249C1351.05 223.957 1399.41 225.783 1451.43 217.977C1497.25 211.103 1541.91 189.147 1585.1 167.908C1611.24 155.054 1635.93 142.917 1661.01 133.764C1689.43 123.403 1713.21 118.808 1735.82 119.286C1754.38 119.689 1797.97 138.259 1844.13 157.924C1913.84 187.636 1992.8 221.301 2007.04 201.711C2001.05 202.845 1994.91 203.423 1988.76 203.436V203.436Z" stroke="white" stroke-opacity="0.5" mask="url(#path-2-outside-2_1_498)"/>
<mask id="path-3-outside-3_1_498" maskUnits="userSpaceOnUse" x="-287.506" y="30.458" width="2303" height="148" fill="black">
<rect fill="white" x="-287.506" y="30.458" width="2303" height="148"/>
<path d="M1720.25 31.1695C1743.35 31.1695 1768.95 36.9733 1798.28 48.7951C1826.96 60.4154 1856.32 76.5932 1884.71 92.2296C1927.55 115.861 1971.91 140.285 2013.5 148.493L2014.49 148.695H2013.48C1987.95 149.954 1961.71 145.509 1933.27 134.934C1907.93 125.517 1883.24 112.272 1859.37 99.4561C1834.28 85.9851 1808.33 72.0483 1781.68 62.6186C1751.81 52.0558 1724.15 48.367 1697.11 51.3634C1665.83 54.8129 1643.04 68.3595 1621.9 85.129C1619.22 88.0666 1616.53 91.0378 1613.84 94.0425C1586.86 124.107 1559 155.09 1511.71 162.518C1501.2 164.152 1490.52 164.882 1479.83 164.696C1450.97 167.793 1422.36 165.955 1390.74 159.207C1359.11 152.459 1329.84 141.846 1298.65 130.628C1281.34 124.396 1263.46 117.95 1245.29 112.285C1193.28 96.0569 1153.79 91.4868 1117.17 97.4795C1084.26 102.868 1052.65 116.603 1008.1 144.867C989.038 156.953 969.852 165.426 949.442 170.752C935.706 174.328 921.477 176.464 907.092 177.11C902.673 177.456 898.23 177.544 893.796 177.374H891.287C852.441 176.707 813.38 167.365 771.948 157.47C754.675 153.34 736.759 149.06 718.598 145.358C647.331 130.867 572.745 131.912 500.621 132.92C490.936 133.046 481.19 133.184 471.383 133.285C441.701 138.107 412.356 141.657 385.046 141.581C350.958 141.468 316.947 136.709 281.007 127.002C259.418 120.984 238.234 114.024 217.543 106.154C130.472 87.156 40.7232 68.007 -32.2417 88.1505C-57.8689 95.226 -82.9301 109.188 -107.211 122.697C-137.26 139.441 -165.656 155.266 -195.047 159.106C-210.159 161.231 -225.7 159.472 -239.555 154.07C-255.39 148.002 -270.338 137.364 -285.255 121.551L-285.439 121.362H-285.133C-231.843 120.179 -184.016 102.339 -137.765 85.0912C-109.873 74.6921 -81.0328 63.9279 -51.6418 57.1546C-18.7012 49.6008 11.6535 47.813 41.1822 51.8292C95.619 59.2319 143.095 77.4367 188.994 95.0371C198.419 98.6504 207.951 102.301 217.589 105.877L220.649 106.569C268.079 116.931 312.984 126.713 353.911 130.049C392.62 133.197 432.246 133.385 471.184 132.995C488.351 130.213 505.624 127.002 522.683 123.842C585.566 112.172 650.575 100.098 706.281 109.276C743.261 115.357 773.325 130.779 802.38 145.673C829.231 159.446 854.583 172.439 882.367 176.14C886.08 176.642 889.824 176.965 893.582 177.11C898.08 177.11 902.487 177.11 906.832 176.845C913.452 176.319 919.991 175.252 926.354 173.66C942.756 169.606 959.326 162.153 977.012 150.86C981.786 147.813 986.437 144.817 990.935 141.909C1025.01 119.977 1051.92 102.667 1083.5 92.217C1117.54 80.9618 1153.77 78.9601 1200.99 85.7333C1241.29 91.5246 1283.19 107.74 1323.71 123.427C1354.51 135.362 1386.36 147.687 1417.71 155.594C1440.02 161.221 1460.55 164.155 1479.58 164.407C1483.22 164.02 1486.86 163.555 1490.51 163.009C1539.68 155.669 1569.7 129.483 1598.72 104.152C1606.28 97.5551 1613.72 91.0714 1621.38 85.0031C1632.56 72.7281 1643.67 61.3218 1656.42 52.0054C1674.3 38.9499 1692.31 32.3529 1713.03 31.2828C1715.6 31.2324 1717.91 31.1695 1720.25 31.1695ZM2012.38 148.594C1971.07 140.184 1927.03 115.936 1884.48 92.494C1856.1 76.9079 1826.75 60.6924 1798.09 49.0721C1765.96 36.0291 1738.18 30.3134 1713.33 31.5975C1692.63 32.6676 1674.68 39.2395 1656.85 52.2573C1644.61 61.2463 1633.77 72.1868 1622.97 83.9833C1643.78 67.6796 1666.3 54.6115 1697.02 51.2501C1724.1 48.2537 1751.81 51.9425 1781.74 62.5808C1808.39 71.872 1834.4 85.8592 1859.48 99.3428C1883.36 112.159 1908.02 125.391 1933.33 134.821C1961.39 145.22 1987.23 149.739 2012.38 148.594V148.594ZM215.968 105.524C206.895 102.15 197.914 98.7133 189.04 95.3015C143.14 77.6759 95.711 59.5215 41.3047 52.1187C11.8219 48.1026 -18.5025 49.8526 -51.3818 57.4316C-80.7575 64.2049 -109.521 74.9565 -137.474 85.3556C-183.664 102.591 -231.43 120.393 -284.658 121.652C-269.833 137.313 -254.977 147.864 -239.264 153.882C-225.45 159.261 -209.953 160.998 -194.894 158.854C-165.58 155.078 -137.214 139.227 -107.18 122.495C-82.93 108.974 -57.8536 94.9993 -32.2111 87.9113C40.3408 67.8811 129.416 86.6524 215.968 105.524V105.524ZM1477.76 164.696C1459.22 164.243 1439.39 161.309 1417.85 155.883C1386.47 147.977 1354.61 135.639 1323.81 123.717C1283.3 108.03 1241.42 91.8142 1201.15 86.0355C1154.02 79.2622 1117.83 81.264 1083.84 92.5066C1052.3 102.931 1025.41 120.204 991.363 142.16C986.773 145.056 982.184 148.052 977.425 151.099C959.708 162.43 943.108 169.896 926.676 173.95C922.164 175.074 917.563 175.941 912.906 176.543C925.264 175.648 937.465 173.639 949.289 170.55C969.668 165.237 988.824 156.777 1007.84 144.704C1052.46 116.414 1084.1 102.666 1117.05 97.2781C1153.79 91.2602 1193.34 95.7925 1245.36 112.071C1263.5 117.749 1281.4 124.182 1298.72 130.414C1329.9 141.644 1359.36 152.232 1390.77 158.993C1421.66 165.615 1449.62 167.478 1477.76 164.683V164.696ZM1482.82 164.507C1492.47 164.521 1502.1 163.783 1511.57 162.304C1558.77 154.851 1586.54 123.918 1613.45 94.0048C1615.78 91.4239 1618.04 88.8682 1620.37 86.3376C1613.19 92.0911 1606.2 98.1971 1599.1 104.391C1570.03 129.747 1539.99 156.009 1490.72 163.311C1487.75 163.764 1484.79 164.159 1481.83 164.495L1482.82 164.507ZM888.105 177.097C886.254 176.933 884.402 176.732 882.551 176.48C854.705 172.779 829.323 159.761 802.456 145.975C773.387 131.081 743.384 115.684 706.45 109.603C650.804 100.451 585.826 112.512 522.989 124.17C506.466 127.242 489.728 130.339 473.097 133.071C482.338 132.97 491.518 132.852 500.636 132.718C572.775 131.711 647.377 130.666 718.69 145.169C736.897 148.871 754.767 153.139 772.056 157.281C812.371 166.849 850.345 175.939 888.105 177.047V177.097ZM444.41 133.486C414.254 133.486 383.899 132.819 354.141 130.389C313.198 127.053 268.339 117.258 220.833 106.897L219.502 106.607C239.645 114.221 260.256 120.966 281.252 126.814C317.1 136.508 351.081 141.267 385.138 141.38H386.087C412.601 141.38 441.013 137.981 469.792 133.348C461.357 133.398 452.906 133.427 444.44 133.436L444.41 133.486Z"/>
</mask>
<path d="M1720.25 31.1695C1743.35 31.1695 1768.95 36.9733 1798.28 48.7951C1826.96 60.4154 1856.32 76.5932 1884.71 92.2296C1927.55 115.861 1971.91 140.285 2013.5 148.493L2014.49 148.695H2013.48C1987.95 149.954 1961.71 145.509 1933.27 134.934C1907.93 125.517 1883.24 112.272 1859.37 99.4561C1834.28 85.9851 1808.33 72.0483 1781.68 62.6186C1751.81 52.0558 1724.15 48.367 1697.11 51.3634C1665.83 54.8129 1643.04 68.3595 1621.9 85.129C1619.22 88.0666 1616.53 91.0378 1613.84 94.0425C1586.86 124.107 1559 155.09 1511.71 162.518C1501.2 164.152 1490.52 164.882 1479.83 164.696C1450.97 167.793 1422.36 165.955 1390.74 159.207C1359.11 152.459 1329.84 141.846 1298.65 130.628C1281.34 124.396 1263.46 117.95 1245.29 112.285C1193.28 96.0569 1153.79 91.4868 1117.17 97.4795C1084.26 102.868 1052.65 116.603 1008.1 144.867C989.038 156.953 969.852 165.426 949.442 170.752C935.706 174.328 921.477 176.464 907.092 177.11C902.673 177.456 898.23 177.544 893.796 177.374H891.287C852.441 176.707 813.38 167.365 771.948 157.47C754.675 153.34 736.759 149.06 718.598 145.358C647.331 130.867 572.745 131.912 500.621 132.92C490.936 133.046 481.19 133.184 471.383 133.285C441.701 138.107 412.356 141.657 385.046 141.581C350.958 141.468 316.947 136.709 281.007 127.002C259.418 120.984 238.234 114.024 217.543 106.154C130.472 87.156 40.7232 68.007 -32.2417 88.1505C-57.8689 95.226 -82.9301 109.188 -107.211 122.697C-137.26 139.441 -165.656 155.266 -195.047 159.106C-210.159 161.231 -225.7 159.472 -239.555 154.07C-255.39 148.002 -270.338 137.364 -285.255 121.551L-285.439 121.362H-285.133C-231.843 120.179 -184.016 102.339 -137.765 85.0912C-109.873 74.6921 -81.0328 63.9279 -51.6418 57.1546C-18.7012 49.6008 11.6535 47.813 41.1822 51.8292C95.619 59.2319 143.095 77.4367 188.994 95.0371C198.419 98.6504 207.951 102.301 217.589 105.877L220.649 106.569C268.079 116.931 312.984 126.713 353.911 130.049C392.62 133.197 432.246 133.385 471.184 132.995C488.351 130.213 505.624 127.002 522.683 123.842C585.566 112.172 650.575 100.098 706.281 109.276C743.261 115.357 773.325 130.779 802.38 145.673C829.231 159.446 854.583 172.439 882.367 176.14C886.08 176.642 889.824 176.965 893.582 177.11C898.08 177.11 902.487 177.11 906.832 176.845C913.452 176.319 919.991 175.252 926.354 173.66C942.756 169.606 959.326 162.153 977.012 150.86C981.786 147.813 986.437 144.817 990.935 141.909C1025.01 119.977 1051.92 102.667 1083.5 92.217C1117.54 80.9618 1153.77 78.9601 1200.99 85.7333C1241.29 91.5246 1283.19 107.74 1323.71 123.427C1354.51 135.362 1386.36 147.687 1417.71 155.594C1440.02 161.221 1460.55 164.155 1479.58 164.407C1483.22 164.02 1486.86 163.555 1490.51 163.009C1539.68 155.669 1569.7 129.483 1598.72 104.152C1606.28 97.5551 1613.72 91.0714 1621.38 85.0031C1632.56 72.7281 1643.67 61.3218 1656.42 52.0054C1674.3 38.9499 1692.31 32.3529 1713.03 31.2828C1715.6 31.2324 1717.91 31.1695 1720.25 31.1695ZM2012.38 148.594C1971.07 140.184 1927.03 115.936 1884.48 92.494C1856.1 76.9079 1826.75 60.6924 1798.09 49.0721C1765.96 36.0291 1738.18 30.3134 1713.33 31.5975C1692.63 32.6676 1674.68 39.2395 1656.85 52.2573C1644.61 61.2463 1633.77 72.1868 1622.97 83.9833C1643.78 67.6796 1666.3 54.6115 1697.02 51.2501C1724.1 48.2537 1751.81 51.9425 1781.74 62.5808C1808.39 71.872 1834.4 85.8592 1859.48 99.3428C1883.36 112.159 1908.02 125.391 1933.33 134.821C1961.39 145.22 1987.23 149.739 2012.38 148.594V148.594ZM215.968 105.524C206.895 102.15 197.914 98.7133 189.04 95.3015C143.14 77.6759 95.711 59.5215 41.3047 52.1187C11.8219 48.1026 -18.5025 49.8526 -51.3818 57.4316C-80.7575 64.2049 -109.521 74.9565 -137.474 85.3556C-183.664 102.591 -231.43 120.393 -284.658 121.652C-269.833 137.313 -254.977 147.864 -239.264 153.882C-225.45 159.261 -209.953 160.998 -194.894 158.854C-165.58 155.078 -137.214 139.227 -107.18 122.495C-82.93 108.974 -57.8536 94.9993 -32.2111 87.9113C40.3408 67.8811 129.416 86.6524 215.968 105.524V105.524ZM1477.76 164.696C1459.22 164.243 1439.39 161.309 1417.85 155.883C1386.47 147.977 1354.61 135.639 1323.81 123.717C1283.3 108.03 1241.42 91.8142 1201.15 86.0355C1154.02 79.2622 1117.83 81.264 1083.84 92.5066C1052.3 102.931 1025.41 120.204 991.363 142.16C986.773 145.056 982.184 148.052 977.425 151.099C959.708 162.43 943.108 169.896 926.676 173.95C922.164 175.074 917.563 175.941 912.906 176.543C925.264 175.648 937.465 173.639 949.289 170.55C969.668 165.237 988.824 156.777 1007.84 144.704C1052.46 116.414 1084.1 102.666 1117.05 97.2781C1153.79 91.2602 1193.34 95.7925 1245.36 112.071C1263.5 117.749 1281.4 124.182 1298.72 130.414C1329.9 141.644 1359.36 152.232 1390.77 158.993C1421.66 165.615 1449.62 167.478 1477.76 164.683V164.696ZM1482.82 164.507C1492.47 164.521 1502.1 163.783 1511.57 162.304C1558.77 154.851 1586.54 123.918 1613.45 94.0048C1615.78 91.4239 1618.04 88.8682 1620.37 86.3376C1613.19 92.0911 1606.2 98.1971 1599.1 104.391C1570.03 129.747 1539.99 156.009 1490.72 163.311C1487.75 163.764 1484.79 164.159 1481.83 164.495L1482.82 164.507ZM888.105 177.097C886.254 176.933 884.402 176.732 882.551 176.48C854.705 172.779 829.323 159.761 802.456 145.975C773.387 131.081 743.384 115.684 706.45 109.603C650.804 100.451 585.826 112.512 522.989 124.17C506.466 127.242 489.728 130.339 473.097 133.071C482.338 132.97 491.518 132.852 500.636 132.718C572.775 131.711 647.377 130.666 718.69 145.169C736.897 148.871 754.767 153.139 772.056 157.281C812.371 166.849 850.345 175.939 888.105 177.047V177.097ZM444.41 133.486C414.254 133.486 383.899 132.819 354.141 130.389C313.198 127.053 268.339 117.258 220.833 106.897L219.502 106.607C239.645 114.221 260.256 120.966 281.252 126.814C317.1 136.508 351.081 141.267 385.138 141.38H386.087C412.601 141.38 441.013 137.981 469.792 133.348C461.357 133.398 452.906 133.427 444.44 133.436L444.41 133.486Z" fill="white" fill-opacity="0.5"/>
<path d="M1720.25 31.1695C1743.35 31.1695 1768.95 36.9733 1798.28 48.7951C1826.96 60.4154 1856.32 76.5932 1884.71 92.2296C1927.55 115.861 1971.91 140.285 2013.5 148.493L2014.49 148.695H2013.48C1987.95 149.954 1961.71 145.509 1933.27 134.934C1907.93 125.517 1883.24 112.272 1859.37 99.4561C1834.28 85.9851 1808.33 72.0483 1781.68 62.6186C1751.81 52.0558 1724.15 48.367 1697.11 51.3634C1665.83 54.8129 1643.04 68.3595 1621.9 85.129C1619.22 88.0666 1616.53 91.0378 1613.84 94.0425C1586.86 124.107 1559 155.09 1511.71 162.518C1501.2 164.152 1490.52 164.882 1479.83 164.696C1450.97 167.793 1422.36 165.955 1390.74 159.207C1359.11 152.459 1329.84 141.846 1298.65 130.628C1281.34 124.396 1263.46 117.95 1245.29 112.285C1193.28 96.0569 1153.79 91.4868 1117.17 97.4795C1084.26 102.868 1052.65 116.603 1008.1 144.867C989.038 156.953 969.852 165.426 949.442 170.752C935.706 174.328 921.477 176.464 907.092 177.11C902.673 177.456 898.23 177.544 893.796 177.374H891.287C852.441 176.707 813.38 167.365 771.948 157.47C754.675 153.34 736.759 149.06 718.598 145.358C647.331 130.867 572.745 131.912 500.621 132.92C490.936 133.046 481.19 133.184 471.383 133.285C441.701 138.107 412.356 141.657 385.046 141.581C350.958 141.468 316.947 136.709 281.007 127.002C259.418 120.984 238.234 114.024 217.543 106.154C130.472 87.156 40.7232 68.007 -32.2417 88.1505C-57.8689 95.226 -82.9301 109.188 -107.211 122.697C-137.26 139.441 -165.656 155.266 -195.047 159.106C-210.159 161.231 -225.7 159.472 -239.555 154.07C-255.39 148.002 -270.338 137.364 -285.255 121.551L-285.439 121.362H-285.133C-231.843 120.179 -184.016 102.339 -137.765 85.0912C-109.873 74.6921 -81.0328 63.9279 -51.6418 57.1546C-18.7012 49.6008 11.6535 47.813 41.1822 51.8292C95.619 59.2319 143.095 77.4367 188.994 95.0371C198.419 98.6504 207.951 102.301 217.589 105.877L220.649 106.569C268.079 116.931 312.984 126.713 353.911 130.049C392.62 133.197 432.246 133.385 471.184 132.995C488.351 130.213 505.624 127.002 522.683 123.842C585.566 112.172 650.575 100.098 706.281 109.276C743.261 115.357 773.325 130.779 802.38 145.673C829.231 159.446 854.583 172.439 882.367 176.14C886.08 176.642 889.824 176.965 893.582 177.11C898.08 177.11 902.487 177.11 906.832 176.845C913.452 176.319 919.991 175.252 926.354 173.66C942.756 169.606 959.326 162.153 977.012 150.86C981.786 147.813 986.437 144.817 990.935 141.909C1025.01 119.977 1051.92 102.667 1083.5 92.217C1117.54 80.9618 1153.77 78.9601 1200.99 85.7333C1241.29 91.5246 1283.19 107.74 1323.71 123.427C1354.51 135.362 1386.36 147.687 1417.71 155.594C1440.02 161.221 1460.55 164.155 1479.58 164.407C1483.22 164.02 1486.86 163.555 1490.51 163.009C1539.68 155.669 1569.7 129.483 1598.72 104.152C1606.28 97.5551 1613.72 91.0714 1621.38 85.0031C1632.56 72.7281 1643.67 61.3218 1656.42 52.0054C1674.3 38.9499 1692.31 32.3529 1713.03 31.2828C1715.6 31.2324 1717.91 31.1695 1720.25 31.1695ZM2012.38 148.594C1971.07 140.184 1927.03 115.936 1884.48 92.494C1856.1 76.9079 1826.75 60.6924 1798.09 49.0721C1765.96 36.0291 1738.18 30.3134 1713.33 31.5975C1692.63 32.6676 1674.68 39.2395 1656.85 52.2573C1644.61 61.2463 1633.77 72.1868 1622.97 83.9833C1643.78 67.6796 1666.3 54.6115 1697.02 51.2501C1724.1 48.2537 1751.81 51.9425 1781.74 62.5808C1808.39 71.872 1834.4 85.8592 1859.48 99.3428C1883.36 112.159 1908.02 125.391 1933.33 134.821C1961.39 145.22 1987.23 149.739 2012.38 148.594V148.594ZM215.968 105.524C206.895 102.15 197.914 98.7133 189.04 95.3015C143.14 77.6759 95.711 59.5215 41.3047 52.1187C11.8219 48.1026 -18.5025 49.8526 -51.3818 57.4316C-80.7575 64.2049 -109.521 74.9565 -137.474 85.3556C-183.664 102.591 -231.43 120.393 -284.658 121.652C-269.833 137.313 -254.977 147.864 -239.264 153.882C-225.45 159.261 -209.953 160.998 -194.894 158.854C-165.58 155.078 -137.214 139.227 -107.18 122.495C-82.93 108.974 -57.8536 94.9993 -32.2111 87.9113C40.3408 67.8811 129.416 86.6524 215.968 105.524V105.524ZM1477.76 164.696C1459.22 164.243 1439.39 161.309 1417.85 155.883C1386.47 147.977 1354.61 135.639 1323.81 123.717C1283.3 108.03 1241.42 91.8142 1201.15 86.0355C1154.02 79.2622 1117.83 81.264 1083.84 92.5066C1052.3 102.931 1025.41 120.204 991.363 142.16C986.773 145.056 982.184 148.052 977.425 151.099C959.708 162.43 943.108 169.896 926.676 173.95C922.164 175.074 917.563 175.941 912.906 176.543C925.264 175.648 937.465 173.639 949.289 170.55C969.668 165.237 988.824 156.777 1007.84 144.704C1052.46 116.414 1084.1 102.666 1117.05 97.2781C1153.79 91.2602 1193.34 95.7925 1245.36 112.071C1263.5 117.749 1281.4 124.182 1298.72 130.414C1329.9 141.644 1359.36 152.232 1390.77 158.993C1421.66 165.615 1449.62 167.478 1477.76 164.683V164.696ZM1482.82 164.507C1492.47 164.521 1502.1 163.783 1511.57 162.304C1558.77 154.851 1586.54 123.918 1613.45 94.0048C1615.78 91.4239 1618.04 88.8682 1620.37 86.3376C1613.19 92.0911 1606.2 98.1971 1599.1 104.391C1570.03 129.747 1539.99 156.009 1490.72 163.311C1487.75 163.764 1484.79 164.159 1481.83 164.495L1482.82 164.507ZM888.105 177.097C886.254 176.933 884.402 176.732 882.551 176.48C854.705 172.779 829.323 159.761 802.456 145.975C773.387 131.081 743.384 115.684 706.45 109.603C650.804 100.451 585.826 112.512 522.989 124.17C506.466 127.242 489.728 130.339 473.097 133.071C482.338 132.97 491.518 132.852 500.636 132.718C572.775 131.711 647.377 130.666 718.69 145.169C736.897 148.871 754.767 153.139 772.056 157.281C812.371 166.849 850.345 175.939 888.105 177.047V177.097ZM444.41 133.486C414.254 133.486 383.899 132.819 354.141 130.389C313.198 127.053 268.339 117.258 220.833 106.897L219.502 106.607C239.645 114.221 260.256 120.966 281.252 126.814C317.1 136.508 351.081 141.267 385.138 141.38H386.087C412.601 141.38 441.013 137.981 469.792 133.348C461.357 133.398 452.906 133.427 444.44 133.436L444.41 133.486Z" stroke="white" stroke-opacity="0.5" mask="url(#path-3-outside-3_1_498)"/>
<mask id="path-4-outside-4_1_498" maskUnits="userSpaceOnUse" x="-340.334" y="0.0732422" width="2347" height="171" fill="black">
<rect fill="white" x="-340.334" y="0.0732422" width="2347" height="171"/>
<path d="M1701.83 1.39604C1726.15 1.39604 1754.7 6.79699 1788.09 17.6493C1834.68 32.757 1883.25 56.1236 1926.11 76.6826C1955.18 90.6194 1982.62 103.801 2004.29 111.821L2005.67 112.324L2004.14 112.06C1971.36 106.017 1928.6 86.2759 1883.27 65.377C1841.35 46.0266 1798 26.0089 1757.73 14.4138C1735.93 8.11895 1717.26 4.94633 1700.65 4.66935C1682.11 4.34202 1666.09 7.81677 1653.01 14.9803C1635.24 24.7122 1623.6 40.8396 1612.34 56.4383C1603.89 68.1342 1595.16 80.2329 1583.94 89.3982C1561.16 108.044 1536.3 119.551 1507.92 124.649C1482.9 129.094 1455.03 128.678 1420.22 123.39C1395.22 119.614 1370.62 113.91 1346.53 107.855C1323.32 104.141 1300.45 99.0419 1277.99 94.1319C1229.52 83.4307 1179.41 72.3643 1127.44 75.0711C1116.47 75.6385 1105.58 77.0206 1094.91 79.2005C1061.1 88.114 1034.45 107.024 1008.55 125.405C980.363 145.422 953.741 164.32 920.005 169.129C876.936 175.285 835.657 150.32 791.961 123.907C761.208 105.312 729.706 86.2634 695.847 76.8966C668.531 71.9182 640.336 71.1031 612.662 74.492C589.284 77.1988 565.6 81.3156 540.523 85.6842C524.505 88.4666 508.287 91.2867 492.054 93.7291C467.145 98.3999 441.885 102.542 416.977 104.556C378.911 107.603 345.573 105.11 315.08 97.0024C279.034 87.3461 245.481 73.5729 213.015 60.253C178.239 45.9763 156.926 42.5346 121.384 33.7847C103.452 29.2622 13.4334 26.5899 -5.25177 25.2536C-25.3 23.8669 -18.9279 30.8525 -38.75 33.6852C-70.8797 38.1923 -98.2914 61.1914 -137.398 78.7163C-172.48 94.4409 -208.756 110.694 -243.273 118.777C-261.938 123.145 -278.34 124.757 -293.441 123.699C-309.872 122.686 -325.625 117.886 -338.897 109.851L-339.417 109.549L-338.774 109.624C-309.98 113.401 -280.007 111.034 -247.159 102.398C-217.829 94.6927 -188.866 82.7828 -160.837 71.2633C-121.776 55.1988 -90.9224 32.1493 -48.2205 26.2321C-24.453 12.9912 76.1245 16.1008 126.43 21.6403C135.947 22.6853 145.784 23.768 155.377 24.7374C212.752 30.5286 236.546 31.3344 269.517 54.0588C275.79 58.3771 282.905 63.2871 291.197 68.7762C308.108 80.0308 327.524 88.4638 348.357 93.6032C367.146 98.2865 387.433 100.603 410.368 100.666H411.408C437.785 100.666 464.958 97.6696 492.054 93.5906C501.126 91.891 510.153 90.1284 519.104 88.3784C563.121 79.7671 608.623 70.8535 653.88 70.8158H654.033C668.297 70.8769 682.453 72.8587 695.939 76.6826C698.53 77.1526 701.121 77.6562 703.711 78.1934C730.762 83.8462 755.486 92.81 781.649 102.29C808.072 111.858 835.382 121.766 867.496 129.131C893.47 135.3 921.019 135.396 947.055 129.408C971.321 124.121 993.506 114.968 1017.01 105.274C1041.58 95.1265 1066.78 84.7274 1094.84 78.9865C1101.57 77.2039 1108.47 75.8693 1115.46 74.9956C1147.71 70.9417 1181.56 71.8355 1218.92 77.7023C1252.27 82.9523 1285.46 91.6266 1317.56 100.011C1327.2 102.529 1336.93 105.047 1346.75 107.565C1367.4 111.037 1388.4 112.942 1409.48 113.256C1434.57 113.5 1459.6 111.166 1483.99 106.306C1508.42 101.434 1531.81 93.5698 1553.4 82.9774C1571.85 73.8751 1587.06 60.5048 1601.66 47.5625C1619.39 31.9009 1637.74 15.7231 1661.73 7.43909C1674.47 3.24991 1688.1 1.19546 1701.83 1.39604ZM2002.7 111.531C1981.28 103.461 1954.34 90.5439 1925.88 76.8966C1883.04 56.3376 1834.48 33.034 1787.89 17.8886C1734.11 0.401434 1692.86 -2.92225 1661.76 7.72866C1637.84 15.9372 1619.53 32.0898 1601.81 47.7262C1587.14 60.681 1571.96 74.0639 1553.5 83.1915C1531.89 93.7696 1508.47 101.625 1484.03 106.495C1459.62 111.366 1434.56 113.705 1409.45 113.457C1389.28 113.152 1369.18 111.378 1349.4 108.157C1372.69 114.184 1396.37 119.14 1420.33 123C1455.09 128.326 1482.92 128.741 1507.9 124.259C1536.22 119.223 1561.04 107.741 1583.77 89.1338C1594.96 79.9811 1603.66 67.8949 1612.12 56.2117C1623.4 40.6004 1635.07 24.4478 1652.88 14.6656C1666.03 7.47686 1682.11 3.9895 1700.69 4.31683C1717.36 4.59381 1736.05 7.7916 1757.87 14.0739C1798.17 25.6816 1841.53 45.6993 1883.47 65.0497C1928.11 85.7346 1970.25 105.186 2002.7 111.531ZM411.27 100.804H410.23C387.28 100.742 366.947 98.425 348.128 93.7291C327.256 88.5857 307.808 80.1348 290.876 68.8518C282.568 63.3626 275.454 58.4652 269.181 54.1344C236.271 31.4729 212.492 30.6671 155.209 24.8759C145.601 23.9065 135.763 22.8237 126.247 21.7788C75.9564 16.2393 -24.5756 13.1297 -48.2971 26.358C-90.9531 32.2877 -121.792 55.3246 -160.837 71.3765C-188.866 82.8961 -217.86 94.8186 -247.205 102.524C-279.855 111.11 -309.674 113.502 -338.33 109.851C-325.21 117.672 -309.705 122.336 -293.548 123.322C-278.493 124.379 -262.122 122.768 -243.502 118.412C-209.016 110.329 -172.755 94.0758 -137.673 78.3638C-98.5513 60.8389 -71.1395 37.8272 -38.9486 33.3075C-19.0955 30.4754 -25.4375 23.4898 -5.35872 24.8759C13.3669 26.2101 103.426 28.8824 121.399 33.407C156.972 42.2198 178.284 45.6489 213.076 59.8753C245.527 73.1952 279.08 86.9684 315.096 96.5995C345.558 104.758 378.85 107.238 416.886 104.153C439.896 102.092 462.735 98.8885 485.276 94.56C460.475 98.274 435.582 100.804 411.347 100.804H411.27ZM693.032 76.1412C680.407 72.7736 667.228 71.0242 653.957 70.9543H653.803C608.592 70.9543 563.091 79.893 519.165 88.5044C512.565 89.8053 505.936 91.0936 499.275 92.3694C513.045 90.2039 526.891 87.8119 540.585 85.4325C565.661 81.0764 589.36 76.947 612.739 74.2528C639.43 70.9932 666.611 71.6324 693.032 76.1412ZM1343.83 107.049C1334.95 104.795 1326.17 102.504 1317.45 100.225C1285.32 91.8406 1252.18 83.1663 1218.84 77.929C1181.51 72.0621 1147.71 71.1683 1115.49 75.2222C1110.19 75.8636 1104.94 76.7718 1099.78 77.9415C1108.92 76.2589 1118.2 75.1645 1127.55 74.6682C1179.57 71.9614 1229.7 83.0404 1278.19 93.7416C1299.72 98.5509 1321.63 103.385 1343.83 107.049ZM907.612 134.054C894.027 134.005 880.514 132.425 867.45 129.358C835.321 121.98 807.995 112.072 781.572 102.492C755.41 93.0114 730.7 84.0602 703.681 78.4074C701.983 78.0549 700.3 77.7275 698.617 77.4002C731.527 87.0188 762.203 105.576 792.19 123.705C835.826 150.144 877.059 175.021 920.005 168.877C953.665 164.08 980.241 145.208 1008.39 125.216C1033.27 107.59 1058.88 89.4234 1090.78 80.0944C1064.41 85.9738 1040.51 95.8315 1017.17 105.475C993.842 115.119 971.459 124.36 947.162 129.622C934.271 132.516 920.975 134.006 907.612 134.054Z"/>
</mask>
<path d="M1701.83 1.39604C1726.15 1.39604 1754.7 6.79699 1788.09 17.6493C1834.68 32.757 1883.25 56.1236 1926.11 76.6826C1955.18 90.6194 1982.62 103.801 2004.29 111.821L2005.67 112.324L2004.14 112.06C1971.36 106.017 1928.6 86.2759 1883.27 65.377C1841.35 46.0266 1798 26.0089 1757.73 14.4138C1735.93 8.11895 1717.26 4.94633 1700.65 4.66935C1682.11 4.34202 1666.09 7.81677 1653.01 14.9803C1635.24 24.7122 1623.6 40.8396 1612.34 56.4383C1603.89 68.1342 1595.16 80.2329 1583.94 89.3982C1561.16 108.044 1536.3 119.551 1507.92 124.649C1482.9 129.094 1455.03 128.678 1420.22 123.39C1395.22 119.614 1370.62 113.91 1346.53 107.855C1323.32 104.141 1300.45 99.0419 1277.99 94.1319C1229.52 83.4307 1179.41 72.3643 1127.44 75.0711C1116.47 75.6385 1105.58 77.0206 1094.91 79.2005C1061.1 88.114 1034.45 107.024 1008.55 125.405C980.363 145.422 953.741 164.32 920.005 169.129C876.936 175.285 835.657 150.32 791.961 123.907C761.208 105.312 729.706 86.2634 695.847 76.8966C668.531 71.9182 640.336 71.1031 612.662 74.492C589.284 77.1988 565.6 81.3156 540.523 85.6842C524.505 88.4666 508.287 91.2867 492.054 93.7291C467.145 98.3999 441.885 102.542 416.977 104.556C378.911 107.603 345.573 105.11 315.08 97.0024C279.034 87.3461 245.481 73.5729 213.015 60.253C178.239 45.9763 156.926 42.5346 121.384 33.7847C103.452 29.2622 13.4334 26.5899 -5.25177 25.2536C-25.3 23.8669 -18.9279 30.8525 -38.75 33.6852C-70.8797 38.1923 -98.2914 61.1914 -137.398 78.7163C-172.48 94.4409 -208.756 110.694 -243.273 118.777C-261.938 123.145 -278.34 124.757 -293.441 123.699C-309.872 122.686 -325.625 117.886 -338.897 109.851L-339.417 109.549L-338.774 109.624C-309.98 113.401 -280.007 111.034 -247.159 102.398C-217.829 94.6927 -188.866 82.7828 -160.837 71.2633C-121.776 55.1988 -90.9224 32.1493 -48.2205 26.2321C-24.453 12.9912 76.1245 16.1008 126.43 21.6403C135.947 22.6853 145.784 23.768 155.377 24.7374C212.752 30.5286 236.546 31.3344 269.517 54.0588C275.79 58.3771 282.905 63.2871 291.197 68.7762C308.108 80.0308 327.524 88.4638 348.357 93.6032C367.146 98.2865 387.433 100.603 410.368 100.666H411.408C437.785 100.666 464.958 97.6696 492.054 93.5906C501.126 91.891 510.153 90.1284 519.104 88.3784C563.121 79.7671 608.623 70.8535 653.88 70.8158H654.033C668.297 70.8769 682.453 72.8587 695.939 76.6826C698.53 77.1526 701.121 77.6562 703.711 78.1934C730.762 83.8462 755.486 92.81 781.649 102.29C808.072 111.858 835.382 121.766 867.496 129.131C893.47 135.3 921.019 135.396 947.055 129.408C971.321 124.121 993.506 114.968 1017.01 105.274C1041.58 95.1265 1066.78 84.7274 1094.84 78.9865C1101.57 77.2039 1108.47 75.8693 1115.46 74.9956C1147.71 70.9417 1181.56 71.8355 1218.92 77.7023C1252.27 82.9523 1285.46 91.6266 1317.56 100.011C1327.2 102.529 1336.93 105.047 1346.75 107.565C1367.4 111.037 1388.4 112.942 1409.48 113.256C1434.57 113.5 1459.6 111.166 1483.99 106.306C1508.42 101.434 1531.81 93.5698 1553.4 82.9774C1571.85 73.8751 1587.06 60.5048 1601.66 47.5625C1619.39 31.9009 1637.74 15.7231 1661.73 7.43909C1674.47 3.24991 1688.1 1.19546 1701.83 1.39604ZM2002.7 111.531C1981.28 103.461 1954.34 90.5439 1925.88 76.8966C1883.04 56.3376 1834.48 33.034 1787.89 17.8886C1734.11 0.401434 1692.86 -2.92225 1661.76 7.72866C1637.84 15.9372 1619.53 32.0898 1601.81 47.7262C1587.14 60.681 1571.96 74.0639 1553.5 83.1915C1531.89 93.7696 1508.47 101.625 1484.03 106.495C1459.62 111.366 1434.56 113.705 1409.45 113.457C1389.28 113.152 1369.18 111.378 1349.4 108.157C1372.69 114.184 1396.37 119.14 1420.33 123C1455.09 128.326 1482.92 128.741 1507.9 124.259C1536.22 119.223 1561.04 107.741 1583.77 89.1338C1594.96 79.9811 1603.66 67.8949 1612.12 56.2117C1623.4 40.6004 1635.07 24.4478 1652.88 14.6656C1666.03 7.47686 1682.11 3.9895 1700.69 4.31683C1717.36 4.59381 1736.05 7.7916 1757.87 14.0739C1798.17 25.6816 1841.53 45.6993 1883.47 65.0497C1928.11 85.7346 1970.25 105.186 2002.7 111.531ZM411.27 100.804H410.23C387.28 100.742 366.947 98.425 348.128 93.7291C327.256 88.5857 307.808 80.1348 290.876 68.8518C282.568 63.3626 275.454 58.4652 269.181 54.1344C236.271 31.4729 212.492 30.6671 155.209 24.8759C145.601 23.9065 135.763 22.8237 126.247 21.7788C75.9564 16.2393 -24.5756 13.1297 -48.2971 26.358C-90.9531 32.2877 -121.792 55.3246 -160.837 71.3765C-188.866 82.8961 -217.86 94.8186 -247.205 102.524C-279.855 111.11 -309.674 113.502 -338.33 109.851C-325.21 117.672 -309.705 122.336 -293.548 123.322C-278.493 124.379 -262.122 122.768 -243.502 118.412C-209.016 110.329 -172.755 94.0758 -137.673 78.3638C-98.5513 60.8389 -71.1395 37.8272 -38.9486 33.3075C-19.0955 30.4754 -25.4375 23.4898 -5.35872 24.8759C13.3669 26.2101 103.426 28.8824 121.399 33.407C156.972 42.2198 178.284 45.6489 213.076 59.8753C245.527 73.1952 279.08 86.9684 315.096 96.5995C345.558 104.758 378.85 107.238 416.886 104.153C439.896 102.092 462.735 98.8885 485.276 94.56C460.475 98.274 435.582 100.804 411.347 100.804H411.27ZM693.032 76.1412C680.407 72.7736 667.228 71.0242 653.957 70.9543H653.803C608.592 70.9543 563.091 79.893 519.165 88.5044C512.565 89.8053 505.936 91.0936 499.275 92.3694C513.045 90.2039 526.891 87.8119 540.585 85.4325C565.661 81.0764 589.36 76.947 612.739 74.2528C639.43 70.9932 666.611 71.6324 693.032 76.1412ZM1343.83 107.049C1334.95 104.795 1326.17 102.504 1317.45 100.225C1285.32 91.8406 1252.18 83.1663 1218.84 77.929C1181.51 72.0621 1147.71 71.1683 1115.49 75.2222C1110.19 75.8636 1104.94 76.7718 1099.78 77.9415C1108.92 76.2589 1118.2 75.1645 1127.55 74.6682C1179.57 71.9614 1229.7 83.0404 1278.19 93.7416C1299.72 98.5509 1321.63 103.385 1343.83 107.049ZM907.612 134.054C894.027 134.005 880.514 132.425 867.45 129.358C835.321 121.98 807.995 112.072 781.572 102.492C755.41 93.0114 730.7 84.0602 703.681 78.4074C701.983 78.0549 700.3 77.7275 698.617 77.4002C731.527 87.0188 762.203 105.576 792.19 123.705C835.826 150.144 877.059 175.021 920.005 168.877C953.665 164.08 980.241 145.208 1008.39 125.216C1033.27 107.59 1058.88 89.4234 1090.78 80.0944C1064.41 85.9738 1040.51 95.8315 1017.17 105.475C993.842 115.119 971.459 124.36 947.162 129.622C934.271 132.516 920.975 134.006 907.612 134.054Z" fill="white" fill-opacity="0.5"/>
<path d="M1701.83 1.39604C1726.15 1.39604 1754.7 6.79699 1788.09 17.6493C1834.68 32.757 1883.25 56.1236 1926.11 76.6826C1955.18 90.6194 1982.62 103.801 2004.29 111.821L2005.67 112.324L2004.14 112.06C1971.36 106.017 1928.6 86.2759 1883.27 65.377C1841.35 46.0266 1798 26.0089 1757.73 14.4138C1735.93 8.11895 1717.26 4.94633 1700.65 4.66935C1682.11 4.34202 1666.09 7.81677 1653.01 14.9803C1635.24 24.7122 1623.6 40.8396 1612.34 56.4383C1603.89 68.1342 1595.16 80.2329 1583.94 89.3982C1561.16 108.044 1536.3 119.551 1507.92 124.649C1482.9 129.094 1455.03 128.678 1420.22 123.39C1395.22 119.614 1370.62 113.91 1346.53 107.855C1323.32 104.141 1300.45 99.0419 1277.99 94.1319C1229.52 83.4307 1179.41 72.3643 1127.44 75.0711C1116.47 75.6385 1105.58 77.0206 1094.91 79.2005C1061.1 88.114 1034.45 107.024 1008.55 125.405C980.363 145.422 953.741 164.32 920.005 169.129C876.936 175.285 835.657 150.32 791.961 123.907C761.208 105.312 729.706 86.2634 695.847 76.8966C668.531 71.9182 640.336 71.1031 612.662 74.492C589.284 77.1988 565.6 81.3156 540.523 85.6842C524.505 88.4666 508.287 91.2867 492.054 93.7291C467.145 98.3999 441.885 102.542 416.977 104.556C378.911 107.603 345.573 105.11 315.08 97.0024C279.034 87.3461 245.481 73.5729 213.015 60.253C178.239 45.9763 156.926 42.5346 121.384 33.7847C103.452 29.2622 13.4334 26.5899 -5.25177 25.2536C-25.3 23.8669 -18.9279 30.8525 -38.75 33.6852C-70.8797 38.1923 -98.2914 61.1914 -137.398 78.7163C-172.48 94.4409 -208.756 110.694 -243.273 118.777C-261.938 123.145 -278.34 124.757 -293.441 123.699C-309.872 122.686 -325.625 117.886 -338.897 109.851L-339.417 109.549L-338.774 109.624C-309.98 113.401 -280.007 111.034 -247.159 102.398C-217.829 94.6927 -188.866 82.7828 -160.837 71.2633C-121.776 55.1988 -90.9224 32.1493 -48.2205 26.2321C-24.453 12.9912 76.1245 16.1008 126.43 21.6403C135.947 22.6853 145.784 23.768 155.377 24.7374C212.752 30.5286 236.546 31.3344 269.517 54.0588C275.79 58.3771 282.905 63.2871 291.197 68.7762C308.108 80.0308 327.524 88.4638 348.357 93.6032C367.146 98.2865 387.433 100.603 410.368 100.666H411.408C437.785 100.666 464.958 97.6696 492.054 93.5906C501.126 91.891 510.153 90.1284 519.104 88.3784C563.121 79.7671 608.623 70.8535 653.88 70.8158H654.033C668.297 70.8769 682.453 72.8587 695.939 76.6826C698.53 77.1526 701.121 77.6562 703.711 78.1934C730.762 83.8462 755.486 92.81 781.649 102.29C808.072 111.858 835.382 121.766 867.496 129.131C893.47 135.3 921.019 135.396 947.055 129.408C971.321 124.121 993.506 114.968 1017.01 105.274C1041.58 95.1265 1066.78 84.7274 1094.84 78.9865C1101.57 77.2039 1108.47 75.8693 1115.46 74.9956C1147.71 70.9417 1181.56 71.8355 1218.92 77.7023C1252.27 82.9523 1285.46 91.6266 1317.56 100.011C1327.2 102.529 1336.93 105.047 1346.75 107.565C1367.4 111.037 1388.4 112.942 1409.48 113.256C1434.57 113.5 1459.6 111.166 1483.99 106.306C1508.42 101.434 1531.81 93.5698 1553.4 82.9774C1571.85 73.8751 1587.06 60.5048 1601.66 47.5625C1619.39 31.9009 1637.74 15.7231 1661.73 7.43909C1674.47 3.24991 1688.1 1.19546 1701.83 1.39604ZM2002.7 111.531C1981.28 103.461 1954.34 90.5439 1925.88 76.8966C1883.04 56.3376 1834.48 33.034 1787.89 17.8886C1734.11 0.401434 1692.86 -2.92225 1661.76 7.72866C1637.84 15.9372 1619.53 32.0898 1601.81 47.7262C1587.14 60.681 1571.96 74.0639 1553.5 83.1915C1531.89 93.7696 1508.47 101.625 1484.03 106.495C1459.62 111.366 1434.56 113.705 1409.45 113.457C1389.28 113.152 1369.18 111.378 1349.4 108.157C1372.69 114.184 1396.37 119.14 1420.33 123C1455.09 128.326 1482.92 128.741 1507.9 124.259C1536.22 119.223 1561.04 107.741 1583.77 89.1338C1594.96 79.9811 1603.66 67.8949 1612.12 56.2117C1623.4 40.6004 1635.07 24.4478 1652.88 14.6656C1666.03 7.47686 1682.11 3.9895 1700.69 4.31683C1717.36 4.59381 1736.05 7.7916 1757.87 14.0739C1798.17 25.6816 1841.53 45.6993 1883.47 65.0497C1928.11 85.7346 1970.25 105.186 2002.7 111.531ZM411.27 100.804H410.23C387.28 100.742 366.947 98.425 348.128 93.7291C327.256 88.5857 307.808 80.1348 290.876 68.8518C282.568 63.3626 275.454 58.4652 269.181 54.1344C236.271 31.4729 212.492 30.6671 155.209 24.8759C145.601 23.9065 135.763 22.8237 126.247 21.7788C75.9564 16.2393 -24.5756 13.1297 -48.2971 26.358C-90.9531 32.2877 -121.792 55.3246 -160.837 71.3765C-188.866 82.8961 -217.86 94.8186 -247.205 102.524C-279.855 111.11 -309.674 113.502 -338.33 109.851C-325.21 117.672 -309.705 122.336 -293.548 123.322C-278.493 124.379 -262.122 122.768 -243.502 118.412C-209.016 110.329 -172.755 94.0758 -137.673 78.3638C-98.5513 60.8389 -71.1395 37.8272 -38.9486 33.3075C-19.0955 30.4754 -25.4375 23.4898 -5.35872 24.8759C13.3669 26.2101 103.426 28.8824 121.399 33.407C156.972 42.2198 178.284 45.6489 213.076 59.8753C245.527 73.1952 279.08 86.9684 315.096 96.5995C345.558 104.758 378.85 107.238 416.886 104.153C439.896 102.092 462.735 98.8885 485.276 94.56C460.475 98.274 435.582 100.804 411.347 100.804H411.27ZM693.032 76.1412C680.407 72.7736 667.228 71.0242 653.957 70.9543H653.803C608.592 70.9543 563.091 79.893 519.165 88.5044C512.565 89.8053 505.936 91.0936 499.275 92.3694C513.045 90.2039 526.891 87.8119 540.585 85.4325C565.661 81.0764 589.36 76.947 612.739 74.2528C639.43 70.9932 666.611 71.6324 693.032 76.1412ZM1343.83 107.049C1334.95 104.795 1326.17 102.504 1317.45 100.225C1285.32 91.8406 1252.18 83.1663 1218.84 77.929C1181.51 72.0621 1147.71 71.1683 1115.49 75.2222C1110.19 75.8636 1104.94 76.7718 1099.78 77.9415C1108.92 76.2589 1118.2 75.1645 1127.55 74.6682C1179.57 71.9614 1229.7 83.0404 1278.19 93.7416C1299.72 98.5509 1321.63 103.385 1343.83 107.049ZM907.612 134.054C894.027 134.005 880.514 132.425 867.45 129.358C835.321 121.98 807.995 112.072 781.572 102.492C755.41 93.0114 730.7 84.0602 703.681 78.4074C701.983 78.0549 700.3 77.7275 698.617 77.4002C731.527 87.0188 762.203 105.576 792.19 123.705C835.826 150.144 877.059 175.021 920.005 168.877C953.665 164.08 980.241 145.208 1008.39 125.216C1033.27 107.59 1058.88 89.4234 1090.78 80.0944C1064.41 85.9738 1040.51 95.8315 1017.17 105.475C993.842 115.119 971.459 124.36 947.162 129.622C934.271 132.516 920.975 134.006 907.612 134.054Z" stroke="white" stroke-opacity="0.5" mask="url(#path-4-outside-4_1_498)"/>
</svg>
