<svg width="601" height="25" viewBox="0 0 601 25" fill="none" xmlns="http://www.w3.org/2000/svg">
<path fill-rule="evenodd" clip-rule="evenodd" d="M106.99 9.14254C100.43 10.1868 94.2738 11.6985 88.722 13.8181C88.1173 14.0519 87.934 14.3791 87.879 14.5194C87.7874 14.7688 87.8241 15.0027 87.9707 15.2209C88.0623 15.3611 88.209 15.5326 88.5205 15.6417C88.7403 15.7196 89.3083 15.7819 90.0595 15.7663C91.3421 15.7507 93.321 15.6261 94.2738 15.6261C97.5353 15.6573 100.797 15.6416 104.058 15.6883C114.447 15.8442 116.261 15.9688 129.618 15.8753C145.211 15.7662 160.84 15.5792 176.451 15.2987C126.833 17.6365 77.2886 20.3639 28.0003 22.9043C27.4506 22.9355 27.0292 23.3409 27.0659 23.8084C27.0842 24.2916 27.5788 24.6501 28.1285 24.6189C143.14 18.6964 259.417 11.7141 375.308 11.2621C381.025 11.3712 386.723 11.4803 392.403 11.5894C426.722 12.2751 461.059 13.1012 495.34 14.3792C506.499 14.8 517.658 15.2675 528.835 15.7039C532.133 15.8286 535.449 15.9533 538.766 16.078C541.441 16.1715 548.33 16.5144 549.301 16.53C550.181 16.5456 550.4 15.8755 550.419 15.8443C550.474 15.6261 550.437 15.3766 550.217 15.1429C550.162 15.0805 550.016 14.9092 549.686 14.8312C549.631 14.8312 549.374 14.8 548.843 14.7532C521.286 12.8362 493.655 11.5115 465.969 10.6699C469.689 10.701 473.408 10.7167 477.128 10.7479C505.803 10.9349 534.551 11.6051 563.208 10.7479C569.731 10.5609 576.272 10.3426 582.777 10.0776C587.156 9.90619 598.424 10.1244 600.018 9.71919C600.751 9.54775 600.916 9.11132 600.935 8.89312C600.953 8.64376 600.898 8.36322 600.568 8.11386C600.422 7.98917 599.963 7.78666 599.102 7.63081C570.977 2.44088 538.069 3.9058 509.431 2.45636C431.651 -1.5179 354.145 1.13172 276.384 3.54745C209.267 5.63589 142.151 5.74496 75.0714 8.58149C50.5189 9.61013 25.197 8.42571 0.992602 12.3532C0.442919 12.4467 0.0946703 12.883 0.186284 13.3505C0.296221 13.8181 0.827625 14.1299 1.37731 14.0364C25.4717 10.1244 50.7022 11.3245 75.1631 10.2958C85.772 9.84387 96.3808 9.46983 106.99 9.14254ZM314.495 10.2958C273.397 9.75036 232.299 9.46975 191.165 9.64119C162.948 9.75029 121.831 5.18395 93.7974 13.9118C93.999 13.9118 94.1637 13.9118 94.3103 13.9118C97.5717 13.9429 100.833 13.9116 104.095 13.974C114.465 14.1298 116.279 14.2545 129.6 14.161C163.662 13.9116 197.816 13.2883 231.859 12.322C259.435 11.5427 286.974 10.8413 314.495 10.2958ZM592.506 8.28527C565.92 4.32659 535.779 5.51125 509.302 4.1709C431.596 0.196639 354.145 2.84607 276.457 5.2618C241.735 6.35278 207.032 6.89824 172.347 7.56841C178.998 7.7866 185.356 7.94242 191.165 7.92684C249.962 7.67747 308.742 8.34776 367.539 9.40756C404.057 8.94 440.574 8.76856 477.146 9.01793C505.803 9.22054 534.496 9.87514 563.153 9.03353C569.658 8.8465 576.181 8.62823 582.685 8.36327C584.902 8.28535 588.915 8.30086 592.506 8.28527Z" fill="url(#paint0_linear_1_397)"/>
<defs>
<linearGradient id="paint0_linear_1_397" x1="300.555" y1="0.417969" x2="300.555" y2="24.6208" gradientUnits="userSpaceOnUse">
<stop stop-color="#EEEC26"/>
<stop offset="1" stop-color="#5EC581"/>
</linearGradient>
</defs>
</svg>
