<svg width="34" height="35" viewBox="0 0 34 35" fill="none" xmlns="http://www.w3.org/2000/svg">
<path d="M30.5798 0.701904H3.86095C2.02402 0.701904 0.521088 2.20484 0.521088 4.04176V30.7606C0.521088 32.5975 2.02402 34.1005 3.86095 34.1005H30.5798C32.4167 34.1005 33.9197 32.5975 33.9197 30.7606V4.04176C33.9197 2.20484 32.4167 0.701904 30.5798 0.701904ZM10.5407 29.0907H5.53087V14.0613H10.5407V29.0907ZM8.03577 11.2225C6.36584 11.2225 5.0299 9.88651 5.0299 8.21658C5.0299 6.54666 6.36584 5.21071 8.03577 5.21071C9.7057 5.21071 11.0416 6.54666 11.0416 8.21658C11.0416 9.88651 9.7057 11.2225 8.03577 11.2225ZM28.9099 29.0907H23.9001V20.2401C23.9001 18.9042 22.7311 17.7352 21.3952 17.7352C20.0593 17.7352 18.8903 18.9042 18.8903 20.2401V29.0907H13.8805V14.0613H18.8903V16.0653C19.7253 14.7293 21.5622 13.7273 23.0651 13.7273C26.238 13.7273 28.9099 16.3992 28.9099 19.5721V29.0907Z" fill="#1B1B1B"/>
</svg>
