<svg width="37" height="39" viewBox="0 0 37 39" fill="none" xmlns="http://www.w3.org/2000/svg">
<g clip-path="url(#clip0_1_39)">
<path d="M32.6263 0.0532227H4.06958C2.10631 0.0532227 0.5 1.78635 0.5 3.90462V34.7158C0.5 36.834 2.10631 38.5672 4.06958 38.5672H32.6263C34.5895 38.5672 36.1958 36.834 36.1958 34.7158V3.90462C36.1958 1.78635 34.5895 0.0532227 32.6263 0.0532227ZM11.2088 32.7901H5.85438V15.4588H11.2088V32.7901ZM8.53156 12.1851C6.74677 12.1851 5.31894 10.6446 5.31894 8.71886C5.31894 6.79316 6.74677 5.2526 8.53156 5.2526C10.3164 5.2526 11.7442 6.79316 11.7442 8.71886C11.7442 10.6446 10.3164 12.1851 8.53156 12.1851ZM30.8415 32.7901H25.4871V22.5839C25.4871 21.0434 24.2377 19.6953 22.8099 19.6953C21.3821 19.6953 20.1327 21.0434 20.1327 22.5839V32.7901H14.7783V15.4588H20.1327V17.7696C21.0251 16.2291 22.9884 15.0737 24.5947 15.0737C27.9858 15.0737 30.8415 18.1548 30.8415 21.8136V32.7901Z" fill="#1B1B1B"/>
</g>
<defs>
<clipPath id="clip0_1_39">
<rect width="35.6958" height="38.5139" fill="white" transform="translate(0.5 0.0532227)"/>
</clipPath>
</defs>
</svg>
