<svg width="143" height="49" viewBox="0 0 143 49" fill="none" xmlns="http://www.w3.org/2000/svg">
<path d="M27.4629 1.19922H23.993V47.7534H27.4629V1.19922Z" fill="white"/>
<path d="M17.0532 47.7534H20.5231V1.19922H17.0532V47.7534Z" fill="white"/>
<path d="M35.2699 3.78556H39.6073V1.19922H31.8V47.7534H39.6073V45.1671H35.2699V24.4763V21.89V3.78556Z" fill="white"/>
<path d="M53.4869 47.7534H56.9568L54.3543 1.19922H49.1495L46.5471 47.7534H50.017L50.8845 23.6142L51.7519 2.92345L52.6194 23.6142L53.4869 47.7534Z" fill="white"/>
<path d="M134.162 47.7534H137.632L135.029 1.19922H129.824L127.222 47.7534H130.692L131.559 23.6142L132.427 2.92345L133.294 23.6142L134.162 47.7534Z" fill="white"/>
<path d="M79.8002 3.78556H84.1376V1.19922H76.3303V47.7534H84.1376V45.1671H79.8002V24.4763V21.89V3.78556Z" fill="white"/>
<path d="M119.993 3.78556H124.33V1.19922H116.523V47.7534H124.33V45.1671H119.993V24.4763V21.89V3.78556Z" fill="white"/>
<path fill-rule="evenodd" clip-rule="evenodd" d="M22.3667 24.0425C12.4731 24.0425 7.92163 29.6912 4.11237 34.4517L0.5 31.5611C0.52594 31.5287 0.551966 31.4961 0.57808 31.4635C4.43881 26.638 10.2169 19.416 22.3667 19.416C29.5421 19.416 33.7824 22.4402 37.5169 25.1036L37.5568 25.1321C41.236 27.756 44.3983 29.9883 49.9499 29.9883C56.6993 29.9883 61.3076 27.6068 66.1192 24.9843C66.2935 24.8893 66.4683 24.7938 66.6437 24.698C71.2869 22.1617 76.3135 19.416 83.2858 19.416C88.5791 19.416 92.4022 20.104 95.4683 21.2038C98.5308 22.3022 100.717 23.7731 102.673 25.102L102.763 25.1631C104.691 26.473 106.375 27.6172 108.68 28.4846C111.004 29.3586 114.074 29.9883 118.687 29.9883C128.746 29.9883 135.782 23.569 139.157 20.113L142.467 23.3455C138.959 26.9377 130.753 34.6148 118.687 34.6148C113.638 34.6148 109.997 33.923 107.051 32.8147C104.224 31.7509 102.144 30.337 100.271 29.0634C100.205 29.0184 100.139 28.9735 100.073 28.9289C98.139 27.6146 96.3706 26.4425 93.9064 25.5586C91.4457 24.6761 88.1702 24.0425 83.2858 24.0425C77.5097 24.0425 73.4055 26.2807 68.6231 28.8886C68.5268 28.9411 68.4302 28.9938 68.3334 29.0465C63.4466 31.7101 57.9509 34.6148 49.9499 34.6148C42.8839 34.6148 38.6836 31.6187 34.9769 28.9747L34.8704 28.8988C31.2026 26.2829 27.9986 24.0425 22.3667 24.0425Z" fill="#2092FB"/>
<path d="M109.005 36.371C109.005 34.46 108.906 32.8194 108.707 31.4493C108.508 30.0791 108.246 28.8893 107.921 27.8797C107.595 26.8521 107.225 25.9597 106.809 25.2025C106.394 24.4453 105.969 23.7332 105.535 23.0662C105.101 22.3991 104.677 21.7321 104.261 21.065C103.845 20.398 103.475 19.6408 103.15 18.7935C102.824 17.9462 102.562 16.9726 102.363 15.8729C102.165 14.7552 102.065 13.4211 102.065 11.8707V5.35349C102.065 4.92081 102.128 4.43405 102.255 3.89321C102.4 3.33433 102.662 2.82053 103.041 2.3518C103.421 1.86504 103.945 1.4594 104.613 1.1349C105.3 0.792361 106.186 0.621094 107.27 0.621094C108.354 0.621094 109.231 0.792361 109.9 1.1349C110.586 1.4594 111.119 1.86504 111.499 2.3518C111.878 2.82053 112.132 3.33433 112.258 3.89321C112.403 4.43405 112.475 4.92081 112.475 5.35349V17.4684H109.005V5.35349C109.005 4.92081 108.951 4.56926 108.842 4.29884C108.752 4.01039 108.625 3.79405 108.463 3.64983C108.3 3.48757 108.11 3.3794 107.894 3.32532C107.695 3.25321 107.487 3.21715 107.27 3.21715C107.053 3.21715 106.836 3.25321 106.619 3.32532C106.421 3.3794 106.24 3.48757 106.077 3.64983C105.915 3.79405 105.779 4.01039 105.671 4.29884C105.58 4.56926 105.535 4.92081 105.535 5.35349V10.6267C105.535 12.6639 105.707 14.3676 106.05 15.7377C106.394 17.1079 106.818 18.3067 107.324 19.3343C107.848 20.3439 108.409 21.2633 109.005 22.0926C109.601 22.9219 110.153 23.8233 110.659 24.7969C111.183 25.7524 111.616 26.8701 111.96 28.1501C112.303 29.4121 112.475 30.9895 112.475 32.8825V43.429C112.475 43.6453 112.448 44.0419 112.394 44.6188C112.339 45.1777 112.15 45.7546 111.824 46.3495C111.499 46.9445 110.984 47.4673 110.279 47.918C109.574 48.3867 108.571 48.6211 107.27 48.6211C105.969 48.6211 104.966 48.3867 104.261 47.918C103.556 47.4673 103.041 46.9445 102.716 46.3495C102.391 45.7546 102.201 45.1777 102.147 44.6188C102.092 44.0419 102.065 43.6453 102.065 43.429V27.8526H105.535V43.429C105.535 43.6453 105.544 43.9067 105.562 44.2132C105.58 44.5017 105.644 44.7811 105.752 45.0515C105.86 45.3219 106.032 45.5563 106.267 45.7546C106.502 45.9349 106.836 46.025 107.27 46.025C107.704 46.025 108.038 45.9349 108.273 45.7546C108.508 45.5563 108.68 45.3219 108.788 45.0515C108.897 44.7811 108.96 44.5017 108.978 44.2132C108.996 43.9067 109.005 43.6453 109.005 43.429V36.371Z" fill="white"/>
<path d="M98.3061 47.7534H94.8362L90.4989 13.2688V47.7534H87.8965V1.19922H91.3664L95.7037 35.6838V1.19922H98.3061V47.7534Z" fill="white"/>
<path d="M71.7038 20.0645H68.2339V5.35349C68.2339 5.13715 68.2249 4.90278 68.2068 4.65039C68.1887 4.398 68.1255 4.17264 68.017 3.97433C67.9086 3.758 67.7369 3.57771 67.502 3.43349C67.267 3.28926 66.9327 3.21715 66.4989 3.21715C66.0652 3.21715 65.7309 3.28926 65.4959 3.43349C65.261 3.57771 65.0893 3.758 64.9809 3.97433C64.8724 4.17264 64.8092 4.398 64.7911 4.65039C64.773 4.90278 64.764 5.13715 64.764 5.35349V43.429C64.764 43.6453 64.773 43.9067 64.7911 44.2132C64.8092 44.5017 64.8724 44.7811 64.9809 45.0515C65.0893 45.3219 65.261 45.5563 65.4959 45.7546C65.7309 45.9349 66.0652 46.025 66.4989 46.025C66.9327 46.025 67.267 45.9349 67.502 45.7546C67.7369 45.5563 67.9086 45.3219 68.017 45.0515C68.1255 44.7811 68.1887 44.5017 68.2068 44.2132C68.2249 43.9067 68.2339 43.6453 68.2339 43.429V26.1219H67.3664V23.5259H71.7038V43.429C71.7038 43.6453 71.6767 44.0419 71.6224 44.6188C71.5682 45.1777 71.3785 45.7546 71.0532 46.3495C70.7279 46.9445 70.2128 47.4673 69.508 47.918C68.8032 48.3867 67.8002 48.6211 66.4989 48.6211C65.1977 48.6211 64.1947 48.3867 63.4899 47.918C62.7851 47.4673 62.27 46.9445 61.9447 46.3495C61.6194 45.7546 61.4297 45.1777 61.3755 44.6188C61.3212 44.0419 61.2941 43.6453 61.2941 43.429V5.35349C61.2941 5.20926 61.3032 4.99292 61.3212 4.70447C61.3393 4.41602 61.3935 4.10053 61.4839 3.758C61.5742 3.39743 61.7279 3.03687 61.9447 2.67631C62.1616 2.29771 62.4598 1.95518 62.8393 1.6487C63.2188 1.34222 63.7068 1.09884 64.3032 0.918559C64.8995 0.720249 65.6315 0.621094 66.4989 0.621094C67.3664 0.621094 68.0983 0.720249 68.6947 0.918559C69.2911 1.09884 69.7791 1.34222 70.1586 1.6487C70.5381 1.95518 70.8363 2.29771 71.0532 2.67631C71.27 3.03687 71.4236 3.39743 71.514 3.758C71.6044 4.10053 71.6586 4.41602 71.6767 4.70447C71.6947 4.99292 71.7038 5.20926 71.7038 5.35349V20.0645Z" fill="white"/>
<path d="M12.7158 1.19922V3.78556H9.24591V47.7534H5.77603V3.78556H2.30615V1.19922H12.7158Z" fill="white"/>
</svg>
