<svg width="56" height="57" viewBox="0 0 56 57" fill="none" xmlns="http://www.w3.org/2000/svg">
<g clip-path="url(#clip0_1_351)">
<path d="M35.3237 18.6618L37.0416 18.6939L41.7112 14.0243L41.9387 12.0468C38.2287 8.74518 33.3462 6.7356 28 6.7356C18.3196 6.7356 10.1558 13.3185 7.73499 22.2435C8.2454 21.8906 9.33332 22.1531 9.33332 22.1531L18.6667 20.6189C18.6667 20.6189 19.1508 19.8256 19.3871 19.8752C21.5221 17.5389 24.5933 16.0689 28 16.0689C30.7708 16.0689 33.32 17.0431 35.3237 18.6618Z" fill="#EA4335"/>
<path d="M48.2708 22.2552C47.1887 18.2535 44.9487 14.7244 41.9358 12.0439L35.3208 18.6589C37.9691 20.7998 39.6666 24.0723 39.6666 27.7356V28.9023C42.8837 28.9023 45.5 31.5185 45.5 34.7356C45.5 37.9527 42.8837 40.5689 39.6666 40.5689H28L26.8333 41.7414V48.7414L28 49.9023H39.6666C48.0287 49.9023 54.8333 43.0977 54.8333 34.7356C54.8333 29.5644 52.2316 24.9939 48.2708 22.2552Z" fill="#4285F4"/>
<path d="M16.3333 49.9023H27.9912V40.5689H16.3333C15.4758 40.5689 14.665 40.3794 13.93 40.0439L12.25 40.5602L7.57749 45.2327L7.16916 46.8106C9.71541 48.7473 12.8917 49.9023 16.3333 49.9023Z" fill="#34A853"/>
<path d="M16.3333 19.5688C7.97124 19.5688 1.16666 26.3734 1.16666 34.7355C1.16666 39.6588 3.52624 44.0426 7.17499 46.8134L13.9387 40.0497C11.9146 39.1338 10.5 37.098 10.5 34.7355C10.5 31.5184 13.1162 28.9022 16.3333 28.9022C18.6958 28.9022 20.7317 30.3168 21.6475 32.3409L28.4112 25.5772C25.6404 21.9284 21.2567 19.5688 16.3333 19.5688Z" fill="#FBBC05"/>
</g>
<defs>
<clipPath id="clip0_1_351">
<rect width="56" height="56" fill="white" transform="translate(0 0.908203)"/>
</clipPath>
</defs>
</svg>
