<svg width="37" height="39" viewBox="0 0 37 39" fill="none" xmlns="http://www.w3.org/2000/svg">
<path d="M32.5906 9.86792C31.5197 10.3686 30.4132 10.7152 29.2352 10.8693C30.4489 10.099 31.3769 8.86655 31.8053 7.36451C30.663 8.09628 29.4137 8.59696 28.0929 8.90507C27.0221 7.67262 25.4871 6.90234 23.8094 6.90234C20.5611 6.90234 17.9553 9.75238 17.9553 13.2186C17.9553 13.7193 17.991 14.1815 18.0981 14.6436C13.2435 14.4126 8.95996 11.8706 6.0686 8.05776C3.99824 12.0632 6.31847 15.3754 7.85339 16.4923C6.9253 16.4923 5.99721 16.1842 5.2119 15.722C5.2119 18.8417 7.24656 21.4221 9.88805 21.9998C9.31692 22.1924 8.03187 22.3079 7.24656 22.1153C7.99617 24.6188 10.1736 26.4674 12.708 26.5059C10.7091 28.2005 7.782 29.5485 4.03394 29.1249C6.63973 30.935 9.70957 31.9749 13.0293 31.9749C23.8094 31.9749 29.6635 22.3464 29.6635 14.0274C29.6635 13.7578 29.6635 13.4882 29.6278 13.2186C30.8415 12.2558 31.841 11.1389 32.5906 9.86792V9.86792Z" fill="#1B1B1B"/>
</svg>
