<svg width="18" height="22" viewBox="0 0 18 22" fill="none" xmlns="http://www.w3.org/2000/svg">
<path d="M17.2429 15.5022C17.2429 12.9305 16.0197 11.0296 13.4926 10.3171C15.3364 9.439 16.298 8.10863 16.298 6.0393C16.298 1.95911 13.2476 0.964111 9.72827 0.964111H0.0385036V21.45H9.99963C13.7347 21.45 17.2429 19.6645 17.2429 15.5022ZM4.55566 4.46122H8.7945C10.4241 4.46122 11.8908 4.91767 11.8908 6.8019C11.8908 8.54141 10.7497 9.24139 9.13544 9.24139H4.55566V4.46122ZM4.55427 17.9709V12.3294H9.47778C11.4664 12.3294 12.7244 13.156 12.7244 15.2545C12.7244 17.3239 11.2229 17.9709 9.38454 17.9709H4.55427Z" fill="#1B1B1B"/>
</svg>
