<svg width="21" height="22" viewBox="0 0 21 22" fill="none" xmlns="http://www.w3.org/2000/svg">
<path d="M18.75 0.121094H2.25C1.65326 0.121094 1.08097 0.358147 0.65901 0.780104C0.237053 1.20206 0 1.77436 0 2.37109L0 18.8711C0 19.4678 0.237053 20.0401 0.65901 20.4621C1.08097 20.884 1.65326 21.1211 2.25 21.1211H8.68359V13.9816H5.73047V10.6211H8.68359V8.05984C8.68359 5.14656 10.418 3.53734 13.0744 3.53734C14.3466 3.53734 15.6769 3.76422 15.6769 3.76422V6.62359H14.2111C12.7669 6.62359 12.3164 7.51984 12.3164 8.43906V10.6211H15.5405L15.0248 13.9816H12.3164V21.1211H18.75C19.3467 21.1211 19.919 20.884 20.341 20.4621C20.7629 20.0401 21 19.4678 21 18.8711V2.37109C21 1.77436 20.7629 1.20206 20.341 0.780104C19.919 0.358147 19.3467 0.121094 18.75 0.121094V0.121094Z" fill="white"/>
</svg>
