<svg width="23" height="17" viewBox="0 0 23 17" fill="none" xmlns="http://www.w3.org/2000/svg">
<path d="M22.4024 3.12455C22.1407 2.13914 21.3696 1.36305 20.3906 1.09968C18.616 0.621094 11.5001 0.621094 11.5001 0.621094C11.5001 0.621094 4.38427 0.621094 2.60965 1.09968C1.63061 1.36309 0.859523 2.13914 0.597814 3.12455C0.122314 4.91068 0.122314 8.63726 0.122314 8.63726C0.122314 8.63726 0.122314 12.3638 0.597814 14.15C0.859523 15.1354 1.63061 15.8791 2.60965 16.1425C4.38427 16.6211 11.5001 16.6211 11.5001 16.6211C11.5001 16.6211 18.6159 16.6211 20.3906 16.1425C21.3696 15.8791 22.1407 15.1354 22.4024 14.15C22.8779 12.3638 22.8779 8.63726 22.8779 8.63726C22.8779 8.63726 22.8779 4.91068 22.4024 3.12455V3.12455ZM9.17281 12.0207V5.2538L15.1203 8.63734L9.17281 12.0207V12.0207Z" fill="white"/>
</svg>
