<svg width="24" height="33" viewBox="0 0 24 33" fill="none" xmlns="http://www.w3.org/2000/svg">
<path d="M22.2355 13.936L3.2105 0.37141C2.89359 0.136842 2.52761 0.00846911 2.1525 0.000304923C1.77739 -0.00785926 1.40756 0.104499 1.0834 0.325115C0.754438 0.535925 0.480208 0.846403 0.289559 1.22388C0.0989101 1.60136 -0.00110759 2.03188 2.95639e-05 2.47015V29.6302C-0.00110759 30.0685 0.0989101 30.499 0.289559 30.8765C0.480208 31.254 0.754438 31.5645 1.0834 31.7753C1.40756 31.9959 1.77739 32.1082 2.1525 32.1001C2.52761 32.0919 2.89359 31.9635 3.2105 31.729L22.2355 18.1644C22.5473 17.9446 22.8053 17.6345 22.9843 17.2641C23.1634 16.8937 23.2574 16.4756 23.2574 16.0502C23.2574 15.6248 23.1634 15.2067 22.9843 14.8363C22.8053 14.4659 22.5473 14.1558 22.2355 13.936Z" fill="#C82E2E"/>
</svg>
