<svg width="36" height="25" viewBox="0 0 36 25" fill="none" xmlns="http://www.w3.org/2000/svg">
<path d="M30.0189 10.5847C29.2209 4.63358 24.2044 0.226074 18.1618 0.226074C12.9739 0.22699 8.47092 3.48913 6.81731 8.41026C3.11242 9.21046 0.490173 12.414 0.490173 16.2484C0.490173 20.4261 3.73993 23.9162 7.90087 24.2595H29.6203C33.0972 23.9162 35.8335 20.9406 35.8335 17.3928C35.8335 14.0162 33.3252 11.0983 30.0189 10.5829V10.5847ZM24.2609 13.7892C24.1469 13.9027 24.0329 13.9604 23.8624 13.9604C23.6918 13.9604 23.5769 13.9027 23.4629 13.7883L18.7319 9.03925V20.2549C18.7319 20.5982 18.5039 20.8271 18.1618 20.8271C17.8198 20.8271 17.5918 20.5982 17.5918 20.2549V9.03925L12.8599 13.7892C12.6319 14.0181 12.2907 14.0181 12.0627 13.7892C11.8347 13.5603 11.8347 13.216 12.0627 12.9871L17.7632 7.2649C17.8198 7.20813 17.8773 7.15137 17.9338 7.15137C18.0478 7.09369 18.2193 7.09369 18.3898 7.15137C18.4473 7.20813 18.5039 7.20813 18.5613 7.2649L24.2618 12.9871C24.4899 13.216 24.4899 13.5603 24.2618 13.7892H24.2609Z" fill="#B3BCCD"/>
</svg>
