<svg width="21" height="22" viewBox="0 0 21 22" fill="none" xmlns="http://www.w3.org/2000/svg">
<path d="M19.5 0.121094H1.49531C0.670312 0.121094 0 0.800781 0 1.63516V19.607C0 20.4414 0.670312 21.1211 1.49531 21.1211H19.5C20.325 21.1211 21 20.4414 21 19.607V1.63516C21 0.800781 20.325 0.121094 19.5 0.121094ZM6.34687 18.1211H3.23438V8.09922H6.35156V18.1211H6.34687ZM4.79062 6.73047C3.79219 6.73047 2.98594 5.91953 2.98594 4.92578C2.98594 3.93203 3.79219 3.12109 4.79062 3.12109C5.78437 3.12109 6.59531 3.93203 6.59531 4.92578C6.59531 5.92422 5.78906 6.73047 4.79062 6.73047V6.73047ZM18.0141 18.1211H14.9016V13.2461C14.9016 12.0836 14.8781 10.5883 13.2844 10.5883C11.6625 10.5883 11.4141 11.8539 11.4141 13.1617V18.1211H8.30156V8.09922H11.2875V9.46797H11.3297C11.7469 8.68047 12.7641 7.85078 14.2781 7.85078C17.4281 7.85078 18.0141 9.92734 18.0141 12.6273V18.1211V18.1211Z" fill="white"/>
</svg>
