<svg width="25" height="21" viewBox="0 0 25 21" fill="none" xmlns="http://www.w3.org/2000/svg">
<path d="M22.033 5.73284C22.0482 5.94603 22.0482 6.15927 22.0482 6.37245C22.0482 12.875 17.099 20.3674 8.0533 20.3674C5.26648 20.3674 2.67767 19.5602 0.5 18.1593C0.895953 18.2049 1.27662 18.2202 1.68781 18.2202C3.98727 18.2202 6.10405 17.4435 7.79441 16.1187C5.63197 16.073 3.81978 14.6567 3.19541 12.7075C3.5 12.7531 3.80455 12.7836 4.12437 12.7836C4.56598 12.7836 5.00764 12.7227 5.41878 12.6161C3.16498 12.1592 1.47458 10.1795 1.47458 7.78869V7.7278C2.12937 8.09328 2.89086 8.3217 3.69791 8.35213C2.37303 7.46886 1.50505 5.96127 1.50505 4.25567C1.50505 3.34198 1.74866 2.50442 2.17508 1.77345C4.59641 4.75822 8.23602 6.70742 12.3172 6.92066C12.2411 6.55517 12.1954 6.1745 12.1954 5.79378C12.1954 3.08309 14.3883 0.875 17.1141 0.875C18.5304 0.875 19.8095 1.46891 20.708 2.4283C21.8197 2.21511 22.8857 1.80392 23.8299 1.24048C23.4643 2.38264 22.6877 3.34203 21.6674 3.95113C22.6573 3.84458 23.6167 3.57041 24.4999 3.18973C23.83 4.16431 22.9924 5.0323 22.033 5.73284V5.73284Z" fill="white"/>
</svg>
