<svg width="34" height="35" viewBox="0 0 34 35" fill="none" xmlns="http://www.w3.org/2000/svg">
<path d="M29.4126 0.962646H4.51544C3.38807 0.962646 2.30689 1.41049 1.50972 2.20766C0.712553 3.00482 0.264709 4.08601 0.264709 5.21338V30.1105C0.264709 31.2379 0.712553 32.3191 1.50972 33.1162C2.30689 33.9134 3.38807 34.3612 4.51544 34.3612H16.7112V20.4647H13.9319V14.9061H16.6882V12.3941C16.6882 10.1205 17.7713 6.5686 22.5375 6.5686L26.8311 6.58583V11.3482H23.713C23.206 11.3482 22.4846 11.6007 22.4846 12.6836V14.9065H26.902L26.3949 20.4651H22.2698V34.3612H29.4126C29.9708 34.3612 30.5235 34.2513 31.0392 34.0377C31.555 33.824 32.0236 33.5109 32.4183 33.1162C32.813 32.7215 33.1261 32.2529 33.3397 31.7372C33.5533 31.2215 33.6633 30.6687 33.6633 30.1105V5.21338C33.6633 4.65516 33.5533 4.10241 33.3397 3.58669C33.1261 3.07097 32.813 2.60237 32.4183 2.20766C32.0236 1.81294 31.555 1.49983 31.0392 1.28621C30.5235 1.07259 29.9708 0.962646 29.4126 0.962646Z" fill="#1B1B1B"/>
</svg>
