<svg width="23" height="22" viewBox="0 0 23 22" fill="none" xmlns="http://www.w3.org/2000/svg">
<path d="M11.5048 5.23086C8.52354 5.23086 6.11885 7.63555 6.11885 10.6168C6.11885 13.598 8.52354 16.0027 11.5048 16.0027C14.486 16.0027 16.8907 13.598 16.8907 10.6168C16.8907 7.63555 14.486 5.23086 11.5048 5.23086ZM11.5048 14.1184C9.57822 14.1184 8.00322 12.548 8.00322 10.6168C8.00322 8.68555 9.57354 7.11523 11.5048 7.11523C13.436 7.11523 15.0063 8.68555 15.0063 10.6168C15.0063 12.548 13.4313 14.1184 11.5048 14.1184V14.1184ZM18.3673 5.01055C18.3673 5.70898 17.8048 6.2668 17.111 6.2668C16.4126 6.2668 15.8548 5.7043 15.8548 5.01055C15.8548 4.3168 16.4173 3.7543 17.111 3.7543C17.8048 3.7543 18.3673 4.3168 18.3673 5.01055ZM21.9345 6.28555C21.8548 4.60273 21.4704 3.11211 20.2376 1.88398C19.0095 0.655859 17.5188 0.271484 15.836 0.187109C14.1017 0.0886719 8.90322 0.0886719 7.16885 0.187109C5.49072 0.266797 4.0001 0.651172 2.76729 1.8793C1.53447 3.10742 1.15479 4.59805 1.07041 6.28086C0.971973 8.01523 0.971973 13.2137 1.07041 14.948C1.1501 16.6309 1.53447 18.1215 2.76729 19.3496C4.0001 20.5777 5.48604 20.9621 7.16885 21.0465C8.90322 21.1449 14.1017 21.1449 15.836 21.0465C17.5188 20.9668 19.0095 20.5824 20.2376 19.3496C21.4657 18.1215 21.8501 16.6309 21.9345 14.948C22.0329 13.2137 22.0329 8.01992 21.9345 6.28555V6.28555ZM19.6938 16.809C19.3282 17.7277 18.6204 18.4355 17.697 18.8059C16.3142 19.3543 13.0329 19.2277 11.5048 19.2277C9.97666 19.2277 6.69072 19.3496 5.3126 18.8059C4.39385 18.4402 3.68604 17.7324 3.31572 16.809C2.76729 15.4262 2.89385 12.1449 2.89385 10.6168C2.89385 9.08867 2.77197 5.80273 3.31572 4.42461C3.68135 3.50586 4.38916 2.79805 5.3126 2.42773C6.69541 1.8793 9.97666 2.00586 11.5048 2.00586C13.0329 2.00586 16.3188 1.88398 17.697 2.42773C18.6157 2.79336 19.3235 3.50117 19.6938 4.42461C20.2423 5.80742 20.1157 9.08867 20.1157 10.6168C20.1157 12.1449 20.2423 15.4309 19.6938 16.809Z" fill="white"/>
</svg>
